<svg width="20" height="20" viewBox="0 0 20 20" fill="none" xmlns="http://www.w3.org/2000/svg">
<path d="M12.2857 6.69189L11.3957 5.7919C11.0201 5.41676 10.8091 4.90772 10.8091 4.3769C10.8091 3.84608 11.0201 3.33703 11.3957 2.9619L12.7557 1.60189C13.132 1.21707 13.6475 1.00014 14.1857 1.00014C14.7239 1.00014 15.2394 1.21707 15.6157 1.60189L18.0057 3.99189L18.0057 3.99189C18.3402 4.32993 18.3904 4.85679 18.1257 5.25189L18.1257 5.2519C14.7319 10.3654 10.3492 14.7481 5.23569 18.1419L5.23569 18.1419C4.83829 18.404 4.31121 18.3496 3.97569 18.0119L1.58569 15.6019C1.21014 15.2268 0.999121 14.7177 0.999121 14.1869C0.999121 13.6561 1.21014 13.147 1.58569 12.7719L2.9257 11.4419C3.30083 11.0663 3.80988 10.8553 4.34069 10.8553C4.87151 10.8553 5.38056 11.0663 5.75569 11.4419L6.64569 12.3419L6.64569 12.3419C8.96033 10.9493 10.8972 9.00901 12.2857 6.69189ZM12.2857 6.69189V6.69189Z" stroke="#F1F0F5" stroke-width="1.5" stroke-linecap="round" stroke-linejoin="round"/>
</svg>
