<svg width="152" height="23" viewBox="0 0 152 23" fill="none" xmlns="http://www.w3.org/2000/svg">
<g clip-path="url(#clip0_1_2)">
<path d="M3.86 19H3.62C3.08667 19 2.64 18.96 2.28 18.88C1.93333 18.8 1.62667 18.64 1.36 18.4C1.10667 18.1467 0.906667 17.8667 0.76 17.56C0.626667 17.2533 0.52 16.7933 0.44 16.18C0.32 15.26 0.26 14.0267 0.26 12.48C0.26 10.92 0.266667 9.82 0.28 9.18C0.306667 8.54 0.36 7.92 0.44 7.32C0.52 6.70667 0.626667 6.25333 0.76 5.96C0.906667 5.65333 1.10667 5.38 1.36 5.14C1.62667 4.88667 1.93333 4.72667 2.28 4.66C2.64 4.58 3.08667 4.54 3.62 4.54H3.86V19ZM4.66 4.54H7.2C8.17333 4.54 8.90667 4.70667 9.4 5.04C9.90667 5.37333 10.16 5.95333 10.16 6.78V8.58C10.16 8.86 10.0667 9 9.88 9H7.36C7.17333 9 7.06 8.97333 7.02 8.92C6.98 8.86667 6.96 8.75333 6.96 8.58V7.02C6.96 6.80667 6.92667 6.66 6.86 6.58C6.80667 6.48667 6.66 6.44 6.42 6.44H4.66V4.54ZM7.36 14.54H9.88C10.0667 14.54 10.16 14.68 10.16 14.96V16.76C10.16 17.5867 9.90667 18.1667 9.4 18.5C8.90667 18.8333 8.17333 19 7.2 19H4.66V17.1H6.42C6.66 17.1 6.80667 17.06 6.86 16.98C6.92667 16.8867 6.96 16.7333 6.96 16.52V14.96C6.96 14.7867 6.98 14.6733 7.02 14.62C7.06 14.5667 7.17333 14.54 7.36 14.54ZM15.9075 4.56V10.3C15.9075 10.5133 15.9542 10.6667 16.0475 10.76C16.1542 10.8533 16.3808 10.9 16.7275 10.9H18.2075V12.8H15.6675C14.9075 12.8 14.2942 12.72 13.8275 12.56C13.3742 12.4 13.0342 12.12 12.8075 11.72C12.5942 11.3067 12.4542 10.8667 12.3875 10.4C12.3342 9.93333 12.3075 9.30667 12.3075 8.52C12.3075 7.72 12.3342 7.11333 12.3875 6.7C12.4542 6.28667 12.5942 5.9 12.8075 5.54C13.0342 5.18 13.3742 4.92667 13.8275 4.78C14.2942 4.63333 14.9075 4.56 15.6675 4.56H15.9075ZM19.0075 10.9H19.2475C19.8208 10.9 20.2608 10.9133 20.5675 10.94C20.8875 10.9533 21.1942 11.0133 21.4875 11.12C21.7808 11.2133 21.9808 11.3267 22.0875 11.46C22.2075 11.5933 22.3142 11.8267 22.4075 12.16C22.5142 12.48 22.5742 12.8267 22.5875 13.2C22.6008 13.5733 22.6075 14.1067 22.6075 14.8C22.6075 15.4933 22.6008 16.0467 22.5875 16.46C22.5742 16.86 22.5142 17.2467 22.4075 17.62C22.3142 17.98 22.2075 18.2333 22.0875 18.38C21.9808 18.5267 21.7808 18.66 21.4875 18.78C21.1942 18.8867 20.8875 18.9533 20.5675 18.98C20.2608 18.9933 19.8208 19 19.2475 19H19.0075V10.9ZM12.5875 14.54H15.1075C15.2942 14.54 15.4075 14.5667 15.4475 14.62C15.4875 14.6733 15.5075 14.7867 15.5075 14.96V16.52C15.5075 16.7333 15.5342 16.8867 15.5875 16.98C15.6542 17.06 15.8075 17.1 16.0475 17.1H18.2075V19H15.2675C14.2942 19 13.5542 18.8333 13.0475 18.5C12.5542 18.1667 12.3075 17.5867 12.3075 16.76V14.96C12.3075 14.68 12.4008 14.54 12.5875 14.54ZM16.7075 4.54H19.2475C20.2208 4.54 20.9542 4.70667 21.4475 5.04C21.9542 5.37333 22.2075 5.95333 22.2075 6.78V8.58C22.2075 8.86 22.1142 9 21.9275 9H19.4075C19.2208 9 19.1075 8.97333 19.0675 8.92C19.0275 8.86667 19.0075 8.75333 19.0075 8.58V7.02C19.0075 6.80667 18.9742 6.66 18.9075 6.58C18.8542 6.48667 18.7075 6.44 18.4675 6.44H16.7075V4.54ZM28.388 4.56V10.3C28.388 10.5133 28.4346 10.6667 28.528 10.76C28.6346 10.8533 28.8613 10.9 29.208 10.9H30.688V12.8H28.148C27.388 12.8 26.7746 12.72 26.308 12.56C25.8546 12.4 25.5146 12.12 25.288 11.72C25.0746 11.3067 24.9346 10.8667 24.868 10.4C24.8146 9.93333 24.788 9.30667 24.788 8.52C24.788 7.72 24.8146 7.11333 24.868 6.7C24.9346 6.28667 25.0746 5.9 25.288 5.54C25.5146 5.18 25.8546 4.92667 26.308 4.78C26.7746 4.63333 27.388 4.56 28.148 4.56H28.388ZM31.488 10.9H31.728C32.3013 10.9 32.7413 10.9133 33.048 10.94C33.368 10.9533 33.6746 11.0133 33.968 11.12C34.2613 11.2133 34.4613 11.3267 34.568 11.46C34.688 11.5933 34.7946 11.8267 34.888 12.16C34.9946 12.48 35.0546 12.8267 35.068 13.2C35.0813 13.5733 35.088 14.1067 35.088 14.8C35.088 15.4933 35.0813 16.0467 35.068 16.46C35.0546 16.86 34.9946 17.2467 34.888 17.62C34.7946 17.98 34.688 18.2333 34.568 18.38C34.4613 18.5267 34.2613 18.66 33.968 18.78C33.6746 18.8867 33.368 18.9533 33.048 18.98C32.7413 18.9933 32.3013 19 31.728 19H31.488V10.9ZM25.068 14.54H27.588C27.7746 14.54 27.888 14.5667 27.928 14.62C27.968 14.6733 27.988 14.7867 27.988 14.96V16.52C27.988 16.7333 28.0146 16.8867 28.068 16.98C28.1346 17.06 28.288 17.1 28.528 17.1H30.688V19H27.748C26.7746 19 26.0346 18.8333 25.528 18.5C25.0346 18.1667 24.788 17.5867 24.788 16.76V14.96C24.788 14.68 24.8813 14.54 25.068 14.54ZM29.188 4.54H31.728C32.7013 4.54 33.4346 4.70667 33.928 5.04C34.4346 5.37333 34.688 5.95333 34.688 6.78V8.58C34.688 8.86 34.5946 9 34.408 9H31.888C31.7013 9 31.588 8.97333 31.548 8.92C31.508 8.86667 31.488 8.75333 31.488 8.58V7.02C31.488 6.80667 31.4546 6.66 31.388 6.58C31.3346 6.48667 31.188 6.44 30.948 6.44H29.188V4.54ZM44.3895 19H44.3495C43.0295 19 42.2162 18.7733 41.9095 18.32C41.7629 18.1067 41.6429 17.9 41.5495 17.7C41.4695 17.5 41.4162 17.1867 41.3895 16.76C41.3229 15.9867 41.2895 15.1267 41.2895 14.18C41.2895 13.2333 41.2962 12.5533 41.3095 12.14C41.3229 11.7133 41.3629 11.2867 41.4295 10.86C41.5095 10.42 41.6095 10.1067 41.7295 9.92C41.8495 9.72 42.0295 9.54 42.2695 9.38C42.5095 9.22 42.7895 9.12 43.1095 9.08C43.4295 9.02667 43.8429 9 44.3495 9H44.3895V19ZM46.7095 15.84C47.6029 15.84 48.2829 15.84 48.7495 15.84C49.2162 15.84 49.4562 15.8467 49.4695 15.86C49.4829 15.86 49.5029 15.8667 49.5295 15.88C49.5695 15.88 49.5962 15.8867 49.6095 15.9C49.6229 15.9133 49.6362 15.9333 49.6495 15.96C49.6629 15.9733 49.6695 16 49.6695 16.04C49.6962 16.1333 49.7095 16.2067 49.7095 16.26V16.86C49.7095 18.2867 48.9829 19 47.5295 19H45.0095V17.5H46.0895C46.3695 17.5 46.5429 17.46 46.6095 17.38C46.6762 17.2867 46.7095 17.1267 46.7095 16.9V15.84ZM45.0095 9H47.5295C48.9829 9 49.7095 9.71333 49.7095 11.14V12.5C48.8162 12.5 48.1362 12.5 47.6695 12.5C47.2029 12.5 46.9629 12.5 46.9495 12.5C46.9362 12.4867 46.9095 12.48 46.8695 12.48C46.8429 12.4667 46.8229 12.4533 46.8095 12.44C46.7962 12.4267 46.7829 12.4133 46.7695 12.4C46.7562 12.3733 46.7495 12.3467 46.7495 12.32C46.7229 12.2133 46.7095 12.1333 46.7095 12.08V11.1C46.7095 10.8733 46.6762 10.72 46.6095 10.64C46.5429 10.5467 46.3695 10.5 46.0895 10.5H45.0095V9ZM55.2825 9H57.2225C57.7292 9 58.1425 9.02667 58.4625 9.08C58.7825 9.12 59.0625 9.22 59.3025 9.38C59.5425 9.54 59.7225 9.72 59.8425 9.92C59.9625 10.1067 60.0558 10.4133 60.1225 10.84C60.2292 11.44 60.2825 12.28 60.2825 13.36C60.2825 14.44 60.2758 15.1733 60.2625 15.56C60.2492 15.9333 60.2225 16.3333 60.1825 16.76C60.1558 17.1867 60.0958 17.5 60.0025 17.7C59.9225 17.9 59.8092 18.1067 59.6625 18.32C59.5292 18.52 59.3492 18.66 59.1225 18.74C58.6292 18.9133 57.9958 19 57.2225 19H57.1825V11.46C57.1825 11.4333 57.1825 11.3533 57.1825 11.22C57.1825 11.0867 57.1758 10.9733 57.1625 10.88C57.0958 10.6267 56.8292 10.5 56.3625 10.5H55.2825V9ZM54.6825 9V16.54C54.6825 16.5667 54.6825 16.6467 54.6825 16.78C54.6825 16.9133 54.6958 17.0267 54.7225 17.12C54.7758 17.3733 55.0358 17.5 55.5025 17.5H56.5825V19H54.6425C54.1358 19 53.7225 18.98 53.4025 18.94C53.0825 18.8867 52.8025 18.78 52.5625 18.62C52.3225 18.46 52.1425 18.2867 52.0225 18.1C51.9025 17.9 51.8025 17.5867 51.7225 17.16C51.6292 16.56 51.5825 15.72 51.5825 14.64C51.5825 13.56 51.5892 12.8333 51.6025 12.46C51.6158 12.0733 51.6358 11.6667 51.6625 11.24C51.7025 10.8133 51.7625 10.5 51.8425 10.3C51.9358 10.1 52.0492 9.9 52.1825 9.7C52.3292 9.48667 52.5158 9.34 52.7425 9.26C53.2358 9.08667 53.8692 9 54.6425 9H54.6825ZM71.3847 9H74.1047C75.558 9 76.2847 9.71333 76.2847 11.14V19H74.0047C73.7914 19 73.618 18.9267 73.4847 18.78C73.3514 18.6333 73.2847 18.44 73.2847 18.2V11.1C73.2847 10.8867 73.2314 10.7333 73.1247 10.64C73.0314 10.5467 72.8114 10.5 72.4647 10.5H71.3847V9ZM62.4647 9H63.6847C64.2714 9 64.7114 9.14667 65.0047 9.44C65.3114 9.72 65.4647 10.0867 65.4647 10.54V19H63.1847C62.9714 19 62.798 18.9267 62.6647 18.78C62.5314 18.6333 62.4647 18.44 62.4647 18.2V9ZM65.9647 9H68.6847C70.138 9 70.8647 9.71333 70.8647 11.14V19H68.5847C68.3714 19 68.198 18.9267 68.0647 18.78C67.9314 18.6333 67.8647 18.44 67.8647 18.2V11.1C67.8647 10.8867 67.8114 10.7333 67.7047 10.64C67.6114 10.5467 67.3914 10.5 67.0447 10.5H65.9647V9ZM86.1395 19H84.0395C83.5862 19 83.2862 18.9267 83.1395 18.78C83.0062 18.6333 82.9395 18.3333 82.9395 17.88V5.7C82.9395 5.23333 83.0129 4.92667 83.1595 4.78C83.3062 4.62 83.5995 4.54 84.0395 4.54H86.1395V19ZM91.1195 10.12V11.32C91.1195 11.8 91.0729 12.1067 90.9795 12.24C90.8862 12.36 90.6195 12.42 90.1795 12.42H86.9395V10.12H91.1195ZM91.9195 4.54V6.26C91.9195 6.71333 91.8462 7.01333 91.6995 7.16C91.5529 7.29333 91.2462 7.36 90.7795 7.36H86.9395V4.54H91.9195ZM97.7989 18.86C97.7989 18.9533 97.7656 19 97.6989 19H95.6789C94.9322 19 94.3789 18.8267 94.0189 18.48C93.6722 18.1333 93.4989 17.5667 93.4989 16.78V4.56H94.7189C95.3056 4.56 95.7456 4.70667 96.0389 5C96.3456 5.28 96.4989 5.64667 96.4989 6.1V16.74C96.4989 17.1533 96.5856 17.3867 96.7589 17.44C96.8522 17.48 96.9789 17.5 97.1389 17.5H97.6389C97.7456 17.5 97.7989 17.5467 97.7989 17.64V18.86ZM102.143 19H102.103C100.783 19 99.9701 18.7733 99.6634 18.32C99.5168 18.1067 99.3968 17.9 99.3034 17.7C99.2234 17.5 99.1701 17.1867 99.1434 16.76C99.0768 15.9867 99.0434 15.1267 99.0434 14.18C99.0434 13.2333 99.0501 12.5533 99.0634 12.14C99.0768 11.7133 99.1168 11.2867 99.1834 10.86C99.2634 10.42 99.3634 10.1067 99.4834 9.92C99.6034 9.72 99.7834 9.54 100.023 9.38C100.263 9.22 100.543 9.12 100.863 9.08C101.183 9.02667 101.597 9 102.103 9H102.143V19ZM107.463 15.84V16.86C107.463 18.2867 106.737 19 105.283 19H102.763V17.5H103.843C104.123 17.5 104.297 17.46 104.363 17.38C104.43 17.2867 104.463 17.1267 104.463 16.9V16.26C104.463 16.06 104.483 15.9467 104.523 15.92C104.577 15.8933 104.61 15.88 104.623 15.88C104.637 15.8667 104.67 15.86 104.723 15.86C104.79 15.8467 104.837 15.84 104.863 15.84C105.73 15.84 106.597 15.84 107.463 15.84ZM102.763 9H105.083C106.003 9 106.63 9.18 106.963 9.54C107.297 9.9 107.463 10.4333 107.463 11.14V12.9C107.463 14.1 106.81 14.7 105.503 14.7H102.563V13.2H103.643C103.963 13.2 104.177 13.16 104.283 13.08C104.403 13 104.463 12.8467 104.463 12.62V11.1C104.463 10.8733 104.43 10.72 104.363 10.64C104.297 10.5467 104.123 10.5 103.843 10.5H102.763V9ZM117.454 9V11.96C117.454 12.6133 117.287 13.1 116.954 13.42C116.634 13.7267 116.074 13.88 115.274 13.88H113.754V12.38H114.074C114.287 12.38 114.407 12.2933 114.434 12.12C114.447 12.04 114.454 11.9267 114.454 11.78V9.82C114.454 9.27333 114.694 9 115.174 9H117.454ZM113.154 15.78H112.834C112.621 15.78 112.501 15.8667 112.474 16.04C112.461 16.12 112.454 16.2333 112.454 16.38V18.18C112.454 18.7267 112.214 19 111.734 19H109.454V16.2C109.454 15.5467 109.614 15.0667 109.934 14.76C110.267 14.44 110.834 14.28 111.634 14.28H113.154V15.78ZM113.754 14.28H115.274C116.074 14.28 116.634 14.44 116.954 14.76C117.287 15.0667 117.454 15.5467 117.454 16.2V19H115.174C114.694 19 114.454 18.7267 114.454 18.18V16.38C114.454 16.1133 114.421 15.9467 114.354 15.88C114.287 15.8133 114.194 15.78 114.074 15.78H113.754V14.28ZM109.454 9H111.734C112.214 9 112.454 9.27333 112.454 9.82V11.78C112.454 12.0467 112.487 12.2133 112.554 12.28C112.621 12.3467 112.714 12.38 112.834 12.38H113.154V13.88H111.634C110.834 13.88 110.267 13.7267 109.934 13.42C109.614 13.1 109.454 12.6133 109.454 11.96V9ZM125.292 6.44H123.432C123.219 6.44 123.112 6.49333 123.112 6.6V19H121.012C120.559 19 120.259 18.9333 120.112 18.8C119.979 18.6533 119.912 18.3533 119.912 17.9V5.68C119.912 5.21333 119.979 4.90667 120.112 4.76C120.259 4.61333 120.559 4.54 121.012 4.54H125.292V6.44ZM126.412 12.72H128.312C128.859 12.72 129.212 12.8467 129.372 13.1C129.532 13.34 129.612 13.7267 129.612 14.26V17.22C129.612 18.1 129.379 18.64 128.912 18.84C128.686 18.9467 128.399 19 128.052 19H123.912V17.12H125.592C126.139 17.12 126.412 16.9267 126.412 16.54V12.72ZM126.152 4.54H128.052C128.586 4.54 128.926 4.66 129.072 4.9C129.232 5.14 129.312 5.53333 129.312 6.08V9.92C129.312 10.6933 129.172 11.2533 128.892 11.6C128.626 11.9467 128.059 12.12 127.192 12.12H123.912V10.22H125.392C125.726 10.22 125.932 10.14 126.012 9.98C126.106 9.82 126.152 9.57333 126.152 9.24V4.54ZM135.478 9H137.418C137.924 9 138.338 9.02667 138.658 9.08C138.978 9.12 139.258 9.22 139.498 9.38C139.738 9.54 139.918 9.72 140.038 9.92C140.158 10.1067 140.251 10.4133 140.318 10.84C140.424 11.44 140.478 12.28 140.478 13.36C140.478 14.44 140.471 15.1733 140.458 15.56C140.444 15.9333 140.418 16.3333 140.378 16.76C140.351 17.1867 140.291 17.5 140.198 17.7C140.118 17.9 140.004 18.1067 139.858 18.32C139.724 18.52 139.544 18.66 139.318 18.74C138.824 18.9133 138.191 19 137.418 19H137.378V11.46C137.378 11.4333 137.378 11.3533 137.378 11.22C137.378 11.0867 137.371 10.9733 137.358 10.88C137.291 10.6267 137.024 10.5 136.558 10.5H135.478V9ZM134.878 9V16.54C134.878 16.5667 134.878 16.6467 134.878 16.78C134.878 16.9133 134.891 17.0267 134.918 17.12C134.971 17.3733 135.231 17.5 135.698 17.5H136.778V19H134.838C134.331 19 133.918 18.98 133.598 18.94C133.278 18.8867 132.998 18.78 132.758 18.62C132.518 18.46 132.338 18.2867 132.218 18.1C132.098 17.9 131.998 17.5867 131.918 17.16C131.824 16.56 131.778 15.72 131.778 14.64C131.778 13.56 131.784 12.8333 131.798 12.46C131.811 12.0733 131.831 11.6667 131.858 11.24C131.898 10.8133 131.958 10.5 132.038 10.3C132.131 10.1 132.244 9.9 132.378 9.7C132.524 9.48667 132.711 9.34 132.938 9.26C133.431 9.08667 134.064 9 134.838 9H134.878ZM150.54 9V11.96C150.54 12.6133 150.373 13.1 150.04 13.42C149.72 13.7267 149.16 13.88 148.36 13.88H146.84V12.38H147.16C147.373 12.38 147.493 12.2933 147.52 12.12C147.533 12.04 147.54 11.9267 147.54 11.78V9.82C147.54 9.27333 147.78 9 148.26 9H150.54ZM146.24 15.78H145.92C145.707 15.78 145.587 15.8667 145.56 16.04C145.547 16.12 145.54 16.2333 145.54 16.38V18.18C145.54 18.7267 145.3 19 144.82 19H142.54V16.2C142.54 15.5467 142.7 15.0667 143.02 14.76C143.353 14.44 143.92 14.28 144.72 14.28H146.24V15.78ZM146.84 14.28H148.36C149.16 14.28 149.72 14.44 150.04 14.76C150.373 15.0667 150.54 15.5467 150.54 16.2V19H148.26C147.78 19 147.54 18.7267 147.54 18.18V16.38C147.54 16.1133 147.507 15.9467 147.44 15.88C147.373 15.8133 147.28 15.78 147.16 15.78H146.84V14.28ZM142.54 9H144.82C145.3 9 145.54 9.27333 145.54 9.82V11.78C145.54 12.0467 145.573 12.2133 145.64 12.28C145.707 12.3467 145.8 12.38 145.92 12.38H146.24V13.88H144.72C143.92 13.88 143.353 13.7267 143.02 13.42C142.7 13.1 142.54 12.6133 142.54 11.96V9Z" fill="white"/>
</g>
<defs>
<clipPath id="clip0_1_2">
<rect width="152" height="23" fill="white"/>
</clipPath>
</defs>
</svg>
