<svg xmlns="http://www.w3.org/2000/svg" width="22.462" height="22.515" viewBox="0 0 22.462 22.515">
  <defs>
    <style>
      .cls-1 {
        fill: none;
        stroke: #f01149;
        stroke-linecap: round;
        stroke-linejoin: round;
        stroke-width: 1.5px;
      }
    </style>
  </defs>
  <g id="ic-contact-phone-time" transform="translate(-0.548 -1.005)">
    <path id="Caminho_1132" data-name="Caminho 1132" class="cls-1" d="M15.67,22.42,18.06,20a2,2,0,0,0,0-2.83L16.7,15.84a2,2,0,0,0-2.83,0l-.9.9h0A16.49,16.49,0,0,1,7.32,11.1h0l.9-.9a2,2,0,0,0,0-2.83L6.87,6A2,2,0,0,0,4,6L1.65,8.4a1,1,0,0,0-.13,1.26h0A46.26,46.26,0,0,0,14.41,22.55h0a1,1,0,0,0,1.26-.13Z"/>
    <path id="Caminho_1133" data-name="Caminho 1133" class="cls-1" d="M8.06,3.1A9.5,9.5,0,0,1,21,15.81"/>
    <path id="Caminho_1134" data-name="Caminho 1134" class="cls-1" d="M13,5.68v5.6h4"/>
  </g>
</svg>
