<svg xmlns="http://www.w3.org/2000/svg" width="20.792" height="18.662" viewBox="0 0 20.792 18.662">
  <defs>
    <style>
      .cls-1 {
        fill: none;
        stroke: #f01149;
        stroke-linecap: round;
        stroke-linejoin: round;
        stroke-width: 1.5px;
      }
    </style>
  </defs>
  <path id="Icon_awesome-leaf" data-name="Icon awesome-leaf" class="cls-1" d="M18.239.323a.519.519,0,0,0-.945-.04,5.725,5.725,0,0,1-5,2.921H9.618A6.412,6.412,0,0,0,3.207,9.615a6.6,6.6,0,0,0,.05.684,15.974,15.974,0,0,1,9.566-2.821.534.534,0,1,1,0,1.068C4.429,8.546.87,13.692.082,15.625a1.07,1.07,0,0,0,1.98.811,8.784,8.784,0,0,1,2.4-3.025,6.4,6.4,0,0,0,5.84,2.578c5.242-.381,8.931-5.082,8.931-10.838A12.141,12.141,0,0,0,18.239.323Z" transform="translate(0.809 0.752)"/>
</svg>
