<svg width="32" height="24" viewBox="0 0 32 24" fill="none" xmlns="http://www.w3.org/2000/svg">
<path d="M23.0666 9.57093L19.2254 16.0448C19.188 16.108 19.1355 16.1602 19.0729 16.1965C19.0103 16.2327 18.9397 16.2517 18.8679 16.2517C18.7961 16.2517 18.7255 16.2327 18.6629 16.1965C18.6003 16.1602 18.5478 16.108 18.5104 16.0448L17.7634 14.7864C17.7295 14.7285 17.6829 14.6797 17.6274 14.6439C17.5718 14.608 17.5089 14.5861 17.4436 14.5798C17.3783 14.5736 17.3125 14.5833 17.2516 14.608C17.1906 14.6328 17.1361 14.672 17.0925 14.7224L12.4862 20.0389C12.4159 20.1185 12.3194 20.1682 12.2154 20.1785C12.1114 20.1887 12.0075 20.1588 11.9238 20.0944C11.8401 20.0301 11.7826 19.9359 11.7625 19.8303C11.7425 19.7247 11.7613 19.6152 11.8153 19.5231L16.9303 10.9346C16.9676 10.8714 17.0201 10.8192 17.0827 10.783C17.1453 10.7468 17.2159 10.7277 17.2877 10.7277C17.3596 10.7277 17.4302 10.7468 17.4928 10.783C17.5554 10.8192 17.6079 10.8714 17.6452 10.9346L18.194 11.8589C18.2316 11.922 18.2843 11.9742 18.347 12.0104C18.4098 12.0466 18.4805 12.0656 18.5525 12.0656C18.6244 12.0656 18.6951 12.0466 18.7579 12.0104C18.8206 11.9742 18.8733 11.922 18.9109 11.8589L20.0104 10.0021C20.0506 9.93441 20.0719 9.85659 20.0719 9.77724C20.0719 9.69789 20.0506 9.62007 20.0104 9.55237L14.4769 0.206691C14.4393 0.143537 14.3866 0.0913743 14.3239 0.0551878C14.2611 0.0190012 14.1904 0 14.1185 0C14.0465 0 13.9758 0.0190012 13.913 0.0551878C13.8503 0.0913743 13.7976 0.143537 13.76 0.206691L0.0614334 23.3439C0.0225906 23.4094 0.00140681 23.4844 6.76818e-05 23.5611C-0.00127145 23.6378 0.0172826 23.7135 0.0538155 23.7803C0.0903483 23.8472 0.143537 23.9028 0.207893 23.9414C0.272249 23.98 0.345441 24.0002 0.419918 24H31.5801C31.6546 24.0002 31.7278 23.98 31.7921 23.9414C31.8565 23.9028 31.9097 23.8472 31.9462 23.7803C31.9827 23.7135 32.0013 23.6378 31.9999 23.5611C31.9986 23.4844 31.9774 23.4094 31.9386 23.3439L23.7835 9.57093C23.7459 9.50778 23.6932 9.45562 23.6305 9.41943C23.5677 9.38324 23.497 9.36424 23.425 9.36424C23.3531 9.36424 23.2824 9.38324 23.2196 9.41943C23.1569 9.45562 23.1042 9.50778 23.0666 9.57093Z" fill="#ACABB7"/>
</svg>
