<svg width="205" height="72" viewBox="0 0 205 72" fill="none" xmlns="http://www.w3.org/2000/svg">
<path d="M53.211 50.9683C47.4396 54.2551 41.6682 57.5419 35.8968 60.8287L27.3963 55.9429C27.3963 46.2157 27.3963 36.4442 27.3963 26.717C24.4435 25.0292 21.4907 23.3414 18.5379 21.6536C18.5379 34.8008 18.5379 47.9036 18.5379 61.0508L35.8521 70.9556L35.8968 71H35.9416V70.9556L53.2558 61.0508C53.211 57.6751 53.211 54.2995 53.211 50.9683ZM44.3079 26.0508C47.1712 24.3629 50.0793 22.6751 52.9426 20.9873C41.4445 14.4137 29.9465 7.8401 18.4932 1.31091L1.13422 11.2602C1.08948 17.7893 1.04474 24.3185 1 30.8477C3.99755 32.5355 6.9951 34.2678 9.99264 35.9556V16.3236L18.4932 11.4378C27.0831 16.3236 35.6731 21.165 44.3079 26.0508ZM70.5252 11.2602C64.6643 7.8401 58.7587 4.42005 52.8978 1C49.9898 2.77665 47.1265 4.5533 44.2184 6.37437L61.7115 16.4124C61.7115 19.6104 61.6668 22.8528 61.6668 26.0508C53.0768 30.9366 44.4868 35.8668 35.8968 40.7525C35.9416 44.0838 35.9416 47.3706 35.9863 50.7018L70.57 30.8921H70.6147C70.57 24.3629 70.57 17.7893 70.5252 11.2602ZM90.6133 28.9378H94.7964H98.9796C99.3375 28.9378 99.6954 29.0267 100.009 29.1599C100.322 29.2932 100.59 29.4708 100.859 29.7373C101.082 29.9594 101.306 30.2703 101.44 30.5812C101.574 30.8921 101.664 31.2475 101.664 31.6028C101.664 31.9581 101.574 32.269 101.44 32.58C101.306 32.8909 101.127 33.1574 100.859 33.3794C100.635 33.6015 100.322 33.7792 100.009 33.9124C99.6954 34.0457 99.3375 34.1345 98.9796 34.1345H90.6133V40.1751C90.6133 41.019 90.7922 41.8185 91.1054 42.5292C91.4186 43.2843 91.866 43.9061 92.4476 44.4391C92.9845 44.9721 93.6556 45.4163 94.4161 45.7272C95.1767 46.0381 95.982 46.2157 96.8321 46.2157C97.5926 46.2157 98.3085 46.1269 98.9796 45.9048C99.6507 45.6827 100.232 45.3274 100.814 44.8388C101.082 44.5723 101.395 44.3947 101.709 44.217C102.067 44.0393 102.38 43.9505 102.782 43.9505C103.364 43.9505 103.901 44.1726 104.393 44.5723C104.661 44.8388 104.885 45.1498 105.019 45.4607C105.154 45.816 105.198 46.1713 105.154 46.5267C105.109 46.882 105.019 47.2817 104.885 47.5926C104.706 47.948 104.483 48.2589 104.214 48.5254C103.275 49.4581 102.156 50.1244 100.903 50.6129C99.6507 51.1015 98.3085 51.3236 96.8768 51.3236C95.3109 51.3236 93.7898 51.0127 92.4029 50.4353C91.0159 49.8579 89.808 49.0584 88.779 48.0368C87.7499 47.0152 86.8999 45.816 86.3183 44.4391C85.7367 43.0622 85.4235 41.5965 85.4235 39.9975V24.8071C85.4235 24.4518 85.513 24.0964 85.6472 23.7855C85.7814 23.4746 86.0051 23.2081 86.2288 22.9416C86.4525 22.7195 86.7657 22.4975 87.0788 22.3642C87.392 22.231 87.7499 22.1421 88.1079 22.1421C88.4658 22.1421 88.779 22.231 89.0921 22.3642C89.4053 22.4975 89.6737 22.6751 89.8974 22.9416C90.1211 23.1637 90.3001 23.4746 90.4343 23.7855C90.5685 24.0964 90.658 24.4518 90.658 24.8071V28.9378H90.6133ZM124.436 38.0431C124.257 37.3769 123.989 36.7995 123.631 36.2665C123.273 35.7335 122.781 35.2893 122.289 34.934C121.752 34.5787 121.17 34.3122 120.499 34.0901C119.828 33.9124 119.157 33.8236 118.397 33.8236C117.681 33.8236 116.965 33.9124 116.339 34.1345C115.712 34.3122 115.086 34.6231 114.594 34.9784C114.057 35.3338 113.654 35.7779 113.251 36.3109C112.894 36.8439 112.625 37.4213 112.446 38.0431H124.436ZM112.58 42.3071C112.804 42.8845 113.073 43.4175 113.475 43.9061C113.833 44.3947 114.28 44.7944 114.773 45.1497C115.265 45.5051 115.802 45.7716 116.428 45.9492C117.01 46.1269 117.636 46.2157 118.307 46.2157C119.962 46.2157 121.26 45.7716 122.199 44.9277C122.513 44.7056 122.826 44.5279 123.139 44.4391C123.452 44.3503 123.721 44.3058 123.989 44.3058C124.436 44.3058 124.839 44.4391 125.197 44.6612C125.555 44.8833 125.823 45.1942 126.047 45.5495C126.226 45.816 126.315 46.0825 126.405 46.3934C126.494 46.7043 126.494 46.9708 126.45 47.2817C126.405 47.5926 126.315 47.9036 126.181 48.1701C126.047 48.481 125.779 48.7475 125.51 48.9695C125.152 49.2805 124.75 49.5914 124.302 49.9023C123.855 50.2132 123.318 50.4353 122.736 50.6574C122.155 50.8794 121.484 51.0571 120.768 51.1904C120.052 51.3236 119.202 51.4124 118.307 51.4124C116.741 51.4124 115.22 51.1015 113.833 50.5241C112.446 49.9467 111.238 49.1028 110.164 48.0812C109.135 47.0596 108.285 45.8604 107.704 44.4835C107.077 43.1066 106.809 41.6409 106.809 40.0863C106.809 38.5317 107.122 37.0216 107.704 35.6447C108.33 34.2678 109.135 33.0685 110.164 32.047C111.193 31.0254 112.401 30.2259 113.833 29.6041C115.22 29.0267 116.696 28.7157 118.307 28.7157C119.873 28.7157 121.349 29.0267 122.736 29.6041C124.123 30.1815 125.331 30.981 126.36 32.0025C127.389 33.0241 128.239 34.1789 128.866 35.5558C129.492 36.9327 129.805 38.3985 129.805 39.953C129.805 40.6637 129.581 41.2855 129.089 41.7297C128.597 42.1739 128.016 42.3959 127.21 42.3959H112.58V42.3071ZM141.169 45.9048C141.527 45.9048 141.885 45.9937 142.198 46.1269C142.511 46.2602 142.78 46.4822 143.003 46.7043C143.227 46.9708 143.406 47.2373 143.54 47.5482C143.674 47.8591 143.719 48.2145 143.719 48.5698C143.719 49.2805 143.495 49.9023 143.003 50.3909C142.511 50.8794 141.93 51.1015 141.169 51.1015C140.095 51.1015 139.066 50.9239 138.127 50.5685C137.187 50.2132 136.337 49.6802 135.621 49.0584C134.905 48.3921 134.324 47.6371 133.921 46.7043C133.518 45.7716 133.295 44.75 133.25 43.6396V22.986C133.25 22.6307 133.34 22.2754 133.474 21.9645C133.608 21.6536 133.787 21.3871 134.011 21.1206C134.234 20.8985 134.503 20.7208 134.816 20.5876C135.129 20.4543 135.442 20.3655 135.8 20.3655C136.158 20.3655 136.516 20.4543 136.829 20.5876C137.142 20.7208 137.411 20.8985 137.679 21.1206C137.948 21.3426 138.127 21.6091 138.261 21.9645C138.395 22.2754 138.485 22.6307 138.485 22.986V43.4619C138.485 44.3058 138.753 44.9277 139.245 45.3274C139.693 45.7272 140.364 45.9048 141.169 45.9048ZM152.399 39.9975C152.399 40.8414 152.578 41.6409 152.891 42.3959C153.204 43.151 153.651 43.8173 154.233 44.3947C154.814 44.9721 155.441 45.4163 156.201 45.7272C156.962 46.0381 157.767 46.2157 158.617 46.2157C159.467 46.2157 160.273 46.0381 161.033 45.7272C161.794 45.4163 162.465 44.9721 163.002 44.3947C163.583 43.8173 164.031 43.151 164.344 42.3959C164.657 41.6409 164.836 40.8414 164.836 39.9975C164.836 39.1536 164.657 38.3541 164.344 37.599C164.031 36.8439 163.583 36.1777 163.002 35.6447C162.42 35.0673 161.749 34.6675 161.033 34.3122C160.273 34.0013 159.467 33.8236 158.617 33.8236C157.767 33.8236 156.962 34.0013 156.201 34.3122C155.441 34.6231 154.77 35.0673 154.233 35.6447C153.651 36.1777 153.204 36.8439 152.891 37.599C152.533 38.3541 152.399 39.1536 152.399 39.9975ZM147.164 23.0749C147.164 22.6751 147.254 22.3198 147.388 22.0089C147.522 21.698 147.701 21.3871 147.925 21.165C148.148 20.8985 148.417 20.7208 148.775 20.5876C149.088 20.4543 149.446 20.3655 149.804 20.3655C150.206 20.3655 150.519 20.4543 150.833 20.5876C151.146 20.7208 151.414 20.8985 151.638 21.165C151.862 21.4315 152.041 21.698 152.175 22.0089C152.309 22.3198 152.354 22.6751 152.354 23.0749V30.4924C153.249 29.915 154.233 29.4264 155.307 29.1155C156.336 28.8046 157.454 28.6269 158.617 28.6269C160.183 28.6269 161.704 28.9378 163.047 29.5152C164.433 30.0926 165.641 30.9366 166.67 31.9581C167.699 32.9797 168.505 34.1789 169.131 35.5558C169.713 36.9327 170.026 38.3985 170.026 39.9975C170.026 41.552 169.713 43.0178 169.131 44.3947C168.55 45.7716 167.699 46.9708 166.67 48.0368C165.641 49.0584 164.433 49.9023 163.047 50.4797C161.66 51.0571 160.183 51.368 158.617 51.368C157.051 51.368 155.575 51.0571 154.188 50.4797C152.801 49.9023 151.593 49.0584 150.564 48.0368C149.535 47.0152 148.685 45.816 148.104 44.3947C147.522 43.0178 147.209 41.552 147.209 39.9975V23.0749H147.164ZM179.108 48.5254C179.108 48.8807 179.019 49.1916 178.884 49.547C178.75 49.8579 178.571 50.1244 178.347 50.3909C178.124 50.6129 177.855 50.7906 177.542 50.9239C177.229 51.0571 176.871 51.1459 176.513 51.1459C176.155 51.1459 175.842 51.0571 175.484 50.9239C175.171 50.7906 174.903 50.6129 174.634 50.3909C174.41 50.1688 174.187 49.9023 174.052 49.547C173.918 49.236 173.829 48.8807 173.829 48.5254V31.514C173.829 31.1586 173.918 30.8477 174.052 30.5368C174.187 30.2259 174.41 29.9594 174.634 29.6929C174.858 29.4708 175.171 29.2487 175.484 29.1155C175.797 28.9822 176.155 28.8934 176.513 28.8934C176.871 28.8934 177.229 28.9822 177.542 29.1155C177.855 29.2487 178.124 29.4264 178.347 29.6929C178.571 29.915 178.75 30.2259 178.884 30.5368C179.019 30.8477 179.063 31.1586 179.063 31.514V48.5254H179.108ZM173.65 23.6523C173.65 23.2525 173.739 22.8972 173.874 22.5419C174.008 22.1866 174.231 21.8756 174.5 21.6536C174.768 21.3871 175.082 21.2094 175.395 21.0317C175.753 20.8985 176.111 20.8096 176.513 20.8096C176.916 20.8096 177.274 20.8985 177.632 21.0317C177.99 21.165 178.303 21.3871 178.571 21.6536C178.84 21.9201 179.063 22.231 179.198 22.5419C179.332 22.8972 179.421 23.2525 179.421 23.6523C179.421 24.052 179.332 24.4074 179.198 24.7183C179.063 25.0736 178.84 25.3401 178.571 25.6066C178.303 25.8731 177.99 26.0508 177.632 26.2284C177.274 26.3617 176.916 26.4505 176.513 26.4505C176.111 26.4505 175.753 26.3617 175.395 26.2284C175.037 26.0952 174.724 25.8731 174.5 25.6066C174.231 25.3401 174.052 25.0736 173.874 24.7183C173.739 24.4074 173.65 24.052 173.65 23.6523ZM189.443 28.9378H197.809C198.167 28.9378 198.525 29.0267 198.838 29.1599C199.151 29.2932 199.42 29.4708 199.688 29.7373C199.912 29.9594 200.136 30.2703 200.27 30.5812C200.404 30.8921 200.494 31.2475 200.494 31.6028C200.494 31.9581 200.404 32.269 200.27 32.58C200.136 32.8909 199.957 33.1574 199.688 33.3794C199.465 33.6015 199.151 33.7792 198.838 33.9124C198.525 34.0457 198.167 34.1345 197.809 34.1345H189.443V40.1751C189.443 41.019 189.622 41.8185 189.935 42.5292C190.248 43.2843 190.696 43.9061 191.277 44.4391C191.859 44.9721 192.485 45.4163 193.246 45.7272C194.006 46.0381 194.812 46.2157 195.662 46.2157C196.422 46.2157 197.138 46.1269 197.809 45.9048C198.48 45.6827 199.062 45.3274 199.643 44.8388C199.912 44.5723 200.225 44.3947 200.538 44.217C200.896 44.0393 201.209 43.9505 201.612 43.9505C202.194 43.9505 202.731 44.1726 203.223 44.5723C203.491 44.8388 203.715 45.1498 203.849 45.4607C203.983 45.816 204.028 46.1713 203.983 46.5267C203.938 46.882 203.849 47.2817 203.715 47.5926C203.536 47.948 203.312 48.2589 203.044 48.5254C202.104 49.4581 200.986 50.1244 199.733 50.6129C198.48 51.1015 197.138 51.3236 195.706 51.3236C194.141 51.3236 192.664 51.0127 191.277 50.4353C189.89 49.8579 188.682 49.0584 187.653 48.0368C186.624 47.0152 185.774 45.816 185.193 44.4391C184.611 43.0622 184.298 41.5965 184.298 39.9975V24.8071C184.298 24.4518 184.387 24.0964 184.522 23.7855C184.656 23.4746 184.879 23.2081 185.103 22.9416C185.327 22.7195 185.64 22.4975 185.953 22.3642C186.266 22.231 186.624 22.1421 186.982 22.1421C187.34 22.1421 187.653 22.231 187.966 22.3642C188.28 22.4975 188.548 22.6751 188.772 22.9416C188.995 23.1637 189.174 23.4746 189.309 23.7855C189.443 24.0964 189.532 24.4518 189.532 24.8071V28.9378H189.443Z" stroke="white" stroke-width="0.8"/>
</svg>
