<svg width="195" height="69" viewBox="0 0 195 69" fill="none" xmlns="http://www.w3.org/2000/svg">
<path fill-rule="evenodd" clip-rule="evenodd" d="M50.1829 48.9456L33.5402 58.4517L25.3701 53.7399V25.4467L16.8535 20.5259V58.6332L33.4742 68.2273V68.2658V68.2273L50.095 58.6332C50.095 55.3857 50.095 52.1399 50.095 48.8961L50.1829 48.9456Z" fill="url(#paint0_linear_108_698)"/>
<path fill-rule="evenodd" clip-rule="evenodd" d="M41.5985 24.798L49.8841 19.8937C38.8623 13.5562 27.8405 7.21509 16.8186 0.8703L0.131954 10.5029L0 29.4604L8.64849 34.4086V15.4072L16.8241 10.6954L41.5985 24.798Z" fill="#32B4D8"/>
<path fill-rule="evenodd" clip-rule="evenodd" d="M66.8245 10.5084L49.8684 0.562378L41.5443 5.74707L58.3464 15.4512C58.3464 18.5521 58.3318 21.6567 58.3025 24.765L33.5391 39.049C33.5611 42.2562 33.5849 45.4616 33.6105 48.6651L66.8355 29.4878H66.8685C66.8685 23.154 66.8556 16.8221 66.83 10.4919L66.8245 10.5084Z" fill="url(#paint1_linear_108_698)"/>
<path fill-rule="evenodd" clip-rule="evenodd" d="M86.0992 27.6129H94.1209C94.4626 27.6099 94.8014 27.6773 95.116 27.8109C95.4179 27.9346 95.6923 28.1169 95.9235 28.3471C96.1547 28.5773 96.3381 28.851 96.463 29.1524C96.596 29.4653 96.6634 29.8021 96.661 30.1421C96.6633 30.4714 96.5958 30.7974 96.463 31.0987C96.3356 31.3957 96.1484 31.6633 95.9132 31.885C95.681 32.1177 95.4068 32.3042 95.105 32.4348C94.7904 32.5683 94.4516 32.6357 94.1099 32.6327H86.0992V38.4497C86.0941 39.2392 86.2572 40.0207 86.5775 40.7424C86.8783 41.4402 87.3115 42.0732 87.853 42.6062C88.9862 43.7128 90.5082 44.3307 92.0921 44.3271C92.7899 44.3337 93.4842 44.2279 94.1484 44.0137C94.7939 43.7938 95.3886 43.446 95.8967 42.9911C96.1592 42.745 96.4554 42.5376 96.7764 42.3753C97.1886 42.1613 97.658 42.0832 98.1173 42.1524C98.5765 42.2215 99.0021 42.4343 99.333 42.7602C99.6029 42.9945 99.8059 43.2961 99.9213 43.6344C100.036 43.9719 100.083 44.3288 100.059 44.6845C100.036 45.0478 99.9467 45.4038 99.7949 45.7346C99.6407 46.0723 99.4222 46.3767 99.1516 46.6308C98.2406 47.5153 97.1569 48.2023 95.9682 48.6486C93.3246 49.6132 90.4156 49.5524 87.8146 48.4782C86.5157 47.9255 85.3316 47.1348 84.3233 46.147C83.3197 45.1531 82.517 43.9752 81.9591 42.6777C81.381 41.3262 81.0872 39.8701 81.0959 38.4002V23.5993C81.0945 23.2584 81.1657 22.921 81.3048 22.6097C81.4369 22.3088 81.6233 22.0349 81.8546 21.8015C82.0824 21.566 82.3554 21.3789 82.6573 21.2517C82.9651 21.1209 83.2961 21.0536 83.6305 21.0537C83.9597 21.0524 84.2855 21.1198 84.5872 21.2517C84.8825 21.3792 85.1483 21.5664 85.3679 21.8015C85.598 22.0359 85.7842 22.3096 85.9177 22.6097C86.049 22.9229 86.1144 23.2598 86.1101 23.5993L86.0992 27.6129Z" fill="#6C7377"/>
<path fill-rule="evenodd" clip-rule="evenodd" d="M118.582 36.4209C118.268 35.2021 117.524 34.1379 116.488 33.4244C115.967 33.0616 115.389 32.7884 114.778 32.6162C114.128 32.4263 113.453 32.3318 112.776 32.3358C112.1 32.3319 111.427 32.4301 110.781 32.6272C110.177 32.8084 109.609 33.089 109.098 33.4574C108.602 33.814 108.169 34.2506 107.817 34.7495C107.463 35.2503 107.197 35.8082 107.031 36.3989L118.582 36.4209ZM107.212 40.5664C107.405 41.1279 107.689 41.6536 108.053 42.1224C108.407 42.5859 108.83 42.9921 109.307 43.3265C109.788 43.6575 110.316 43.9134 110.874 44.0852C111.457 44.2627 112.063 44.3517 112.672 44.3491C114.031 44.4256 115.368 43.9813 116.411 43.1066C116.684 42.9058 116.986 42.7465 117.307 42.6337C117.573 42.5351 117.853 42.483 118.137 42.4798C118.546 42.476 118.948 42.5927 119.292 42.8152C119.629 43.0372 119.913 43.3322 120.122 43.6784C120.275 43.9247 120.388 44.1938 120.457 44.4756C120.527 44.7579 120.542 45.0509 120.501 45.3388C120.458 45.6416 120.366 45.9352 120.226 46.2075C120.064 46.5084 119.839 46.7709 119.566 46.9772C119.201 47.2963 118.811 47.5867 118.401 47.8459C117.932 48.1463 117.432 48.3969 116.911 48.5937C116.297 48.8215 115.664 48.9945 115.02 49.1105C114.239 49.2496 113.448 49.3158 112.655 49.3084C111.183 49.3169 109.725 49.0212 108.372 48.4397C107.063 47.8854 105.872 47.0847 104.865 46.081C103.864 45.0733 103.06 43.8873 102.495 42.5842C101.915 41.2319 101.615 39.7756 101.615 38.304C101.615 36.8323 101.915 35.3761 102.495 34.0237C103.619 31.3852 105.728 29.2886 108.372 28.1793C109.724 27.6099 111.175 27.3167 112.642 27.3167C114.108 27.3167 115.56 27.6099 116.911 28.1793C118.21 28.7324 119.395 29.5209 120.408 30.5049C121.419 31.4899 122.231 32.6603 122.799 33.9522C123.395 35.2863 123.704 36.7304 123.707 38.1913C123.719 38.5094 123.666 38.8266 123.55 39.1229C123.433 39.4192 123.256 39.688 123.03 39.9122C122.791 40.1343 122.509 40.3065 122.203 40.4188C121.896 40.5312 121.57 40.5813 121.243 40.5664H107.212Z" fill="#6C7377"/>
<path fill-rule="evenodd" clip-rule="evenodd" d="M134.648 44.0467C134.991 44.0448 135.33 44.116 135.643 44.2557C135.941 44.3827 136.208 44.5699 136.43 44.8055C136.645 45.0467 136.816 45.324 136.935 45.6247C137.057 45.9328 137.118 46.2612 137.117 46.5924C137.126 46.9159 137.07 47.2381 136.952 47.5395C136.834 47.8409 136.656 48.1153 136.43 48.3463C136.194 48.5751 135.915 48.754 135.609 48.8722C135.303 48.9903 134.976 49.0452 134.648 49.0335C133.644 49.0336 132.648 48.8472 131.712 48.4837C130.825 48.1471 130.008 47.6473 129.304 47.0102C128.602 46.3718 128.041 45.5949 127.655 44.7285C127.249 43.8034 127.029 42.8079 127.006 41.798V21.851C127.004 21.5098 127.069 21.1716 127.198 20.8558C127.332 20.5609 127.519 20.2926 127.748 20.0641C127.962 19.8327 128.22 19.6459 128.507 19.5143C128.805 19.3841 129.127 19.3167 129.453 19.3163C129.792 19.3161 130.129 19.3833 130.442 19.5143C130.746 19.6466 131.024 19.8329 131.261 20.0641C131.507 20.2919 131.703 20.5684 131.837 20.8761C131.97 21.1837 132.038 21.5157 132.037 21.851V41.6441C132.008 41.9805 132.059 42.3188 132.185 42.632C132.311 42.9452 132.509 43.2244 132.762 43.4475C133.301 43.8636 133.969 44.0759 134.648 44.0467Z" fill="#6C7377"/>
<path fill-rule="evenodd" clip-rule="evenodd" d="M145.441 38.3343C145.438 39.1301 145.599 39.9179 145.914 40.649C146.216 41.3648 146.655 42.0147 147.206 42.5623C147.751 43.1107 148.397 43.5493 149.108 43.8544C149.845 44.1663 150.637 44.3271 151.437 44.3271C152.237 44.3271 153.028 44.1663 153.765 43.8544C154.473 43.5474 155.117 43.109 155.662 42.5623C156.216 42.0067 156.655 41.3472 156.954 40.6218C157.253 39.8963 157.406 39.119 157.405 38.3343C157.41 37.5304 157.253 36.7338 156.943 35.9921C156.647 35.2822 156.211 34.6391 155.662 34.1007C155.113 33.561 154.47 33.1268 153.765 32.8197C153.028 32.5077 152.237 32.347 151.437 32.347C150.637 32.347 149.845 32.5077 149.108 32.8197C148.4 33.1253 147.755 33.5597 147.206 34.1007C146.644 34.6554 146.199 35.3165 145.896 36.0453C145.593 36.7741 145.438 37.556 145.441 38.3453V38.3343ZM140.438 21.939C140.434 21.5882 140.501 21.2404 140.636 20.9163C140.765 20.6073 140.951 20.3255 141.185 20.0861C141.411 19.8504 141.682 19.6633 141.983 19.5363C142.296 19.4059 142.633 19.3387 142.972 19.3384C143.316 19.336 143.656 19.4033 143.973 19.5363C144.269 19.6649 144.537 19.8519 144.759 20.0861C144.977 20.3248 145.146 20.6029 145.259 20.9053C145.383 21.232 145.444 21.5788 145.441 21.928V29.1525C146.316 28.5806 147.268 28.1346 148.267 27.8274C149.292 27.5061 150.36 27.3448 151.434 27.3491C152.904 27.3394 154.361 27.6352 155.711 28.2178C158.338 29.3302 160.43 31.42 161.545 34.0458C162.116 35.3986 162.41 36.8521 162.41 38.3205C162.41 39.7889 162.116 41.2424 161.545 42.5953C160.987 43.9016 160.189 45.0916 159.192 46.1031C158.194 47.1058 157.012 47.9067 155.711 48.4618C154.361 49.035 152.909 49.3305 151.442 49.3305C149.975 49.3305 148.523 49.035 147.173 48.4618C144.526 47.3455 142.42 45.2408 141.301 42.5953C140.725 41.2489 140.431 39.7987 140.438 38.3343V21.939Z" fill="#6C7377"/>
<path fill-rule="evenodd" clip-rule="evenodd" d="M171.121 46.5649C171.122 46.8976 171.055 47.2269 170.924 47.5326C170.795 47.8308 170.608 48.1001 170.374 48.3243C170.149 48.5562 169.882 48.7429 169.587 48.8741C169.278 49.0037 168.945 49.0692 168.609 49.0665C168.277 49.0664 167.948 49.001 167.641 48.8741C167.34 48.7432 167.065 48.5567 166.833 48.3243C166.595 48.1027 166.408 47.8327 166.283 47.5326C166.152 47.2269 166.084 46.8976 166.085 46.5649V30.1036C166.084 29.7733 166.155 29.4466 166.294 29.147C166.428 28.8501 166.614 28.5799 166.844 28.3497C167.074 28.1141 167.349 27.9271 167.652 27.7999C167.967 27.6664 168.305 27.599 168.647 27.602C168.98 27.5984 169.31 27.6659 169.615 27.7999C170.055 27.9998 170.428 28.3225 170.69 28.7291C170.951 29.1358 171.089 29.6092 171.088 30.0926L171.121 46.5649ZM165.865 22.5163C165.864 22.1528 165.935 21.7926 166.073 21.4567C166.212 21.1207 166.416 20.8156 166.673 20.5589C166.925 20.3089 167.221 20.1093 167.548 19.9706C167.883 19.8257 168.244 19.7509 168.609 19.7509C168.974 19.7509 169.335 19.8257 169.67 19.9706C169.999 20.1131 170.3 20.3122 170.561 20.5589C170.817 20.8145 171.019 21.1193 171.154 21.4551C171.305 21.8018 171.38 22.1767 171.374 22.5547C171.377 22.9165 171.302 23.2745 171.154 23.6049C171.016 23.9295 170.814 24.223 170.561 24.4681C170.302 24.7167 170 24.916 169.67 25.0564C169.335 25.2013 168.974 25.2761 168.609 25.2761C168.244 25.2761 167.883 25.2013 167.548 25.0564C166.89 24.7805 166.366 24.26 166.085 23.6049C165.94 23.2737 165.865 22.9162 165.865 22.5547V22.5163Z" fill="#6C7377"/>
<path fill-rule="evenodd" clip-rule="evenodd" d="M181.035 27.613H189.057C189.397 27.6106 189.734 27.6779 190.047 27.8109C190.35 27.9381 190.625 28.1251 190.855 28.3607C191.089 28.5922 191.275 28.8666 191.405 29.1689C191.536 29.4822 191.602 29.819 191.597 30.1586C191.601 30.4875 191.536 30.8136 191.405 31.1153C191.275 31.4109 191.088 31.6781 190.855 31.9015C190.623 32.1342 190.348 32.3208 190.047 32.4513C189.734 32.5843 189.397 32.6516 189.057 32.6492H181.035V38.4497C181.028 39.2388 181.19 40.0204 181.508 40.7424C181.977 41.8095 182.747 42.7169 183.723 43.3535C184.7 43.9901 185.841 44.3285 187.006 44.3272C187.711 44.3308 188.411 44.2194 189.079 43.9973C189.727 43.7787 190.324 43.4308 190.833 42.9746C191.093 42.7286 191.388 42.5212 191.707 42.3588C192.023 42.2008 192.371 42.118 192.724 42.1169C193.301 42.1202 193.854 42.3445 194.269 42.7437C194.536 42.9812 194.738 43.2818 194.858 43.6179C194.97 43.9561 195.016 44.3125 194.995 44.668C194.967 45.0305 194.878 45.3856 194.731 45.7182C194.579 46.0631 194.358 46.3736 194.082 46.6309C193.174 47.5163 192.092 48.2035 190.904 48.6487C188.263 49.6134 185.355 49.5526 182.756 48.4782C181.447 47.9306 180.252 47.1396 179.238 46.147C178.233 45.1547 177.432 43.9764 176.879 42.6777C176.294 41.3282 175.998 39.8711 176.01 38.4002V23.5994C176.009 23.2584 176.08 22.921 176.219 22.6097C176.351 22.3087 176.537 22.0347 176.769 21.8015C177.242 21.3337 177.879 21.0693 178.545 21.0648C178.874 21.0624 179.2 21.1299 179.501 21.2627C179.798 21.3902 180.066 21.5773 180.288 21.8125C180.518 22.0469 180.704 22.3206 180.837 22.6207C180.966 22.9347 181.031 23.271 181.03 23.6104L181.035 27.613Z" fill="#6C7377"/>
<defs>
<linearGradient id="paint0_linear_108_698" x1="16.8535" y1="44.4096" x2="50.1829" y2="44.4096" gradientUnits="userSpaceOnUse">
<stop stop-color="#F7A748"/>
<stop offset="1" stop-color="#E26713"/>
</linearGradient>
<linearGradient id="paint1_linear_108_698" x1="33.5336" y1="24.622" x2="66.863" y2="24.622" gradientUnits="userSpaceOnUse">
<stop stop-color="#32B4D8"/>
<stop offset="1" stop-color="#4A5FA9"/>
</linearGradient>
</defs>
</svg>
