<svg width="195" height="68" viewBox="0 0 195 68" fill="none" xmlns="http://www.w3.org/2000/svg">
<path fill-rule="evenodd" clip-rule="evenodd" d="M50.1818 48.4712C44.6157 51.6482 39.0925 54.8253 33.5264 58.0452L25.3485 53.3226C25.3485 43.8774 25.3485 34.3892 25.3485 24.9439C22.5227 23.3125 19.654 21.6381 16.8281 20.0067C16.8281 32.7577 16.8281 45.4659 16.8281 58.217L33.4408 67.834V67.8769L33.4836 67.834L50.0962 58.217C50.1818 54.997 50.1818 51.7341 50.1818 48.4712Z" fill="white"/>
<path fill-rule="evenodd" clip-rule="evenodd" d="M41.6172 24.3001C44.3574 22.6687 47.1405 21.0372 49.9235 19.3628C38.877 13.0087 27.8304 6.65467 16.8267 0.300598L0.128448 9.96051C0.0856321 16.3146 0.0428161 22.6257 0 28.9798C2.86868 30.6113 5.78017 32.2856 8.64885 33.9171V14.8978L16.8267 10.1752C25.0902 14.8978 33.3537 19.5775 41.6172 24.3001Z" fill="white"/>
<path fill-rule="evenodd" clip-rule="evenodd" d="M66.8343 9.96044C61.1826 6.65461 55.5309 3.30584 49.8792 0C47.0961 1.71732 44.3131 3.47757 41.5729 5.19489L58.3568 14.9407C58.3568 18.0748 58.3139 21.1659 58.3139 24.3C50.0504 29.0656 41.7869 33.8741 33.5234 38.6396C33.5663 41.8596 33.5663 45.0796 33.6091 48.2996L66.8343 29.0656H66.8771C66.8343 22.6686 66.8343 16.3145 66.8343 9.96044Z" fill="white"/>
<path fill-rule="evenodd" clip-rule="evenodd" d="M86.1034 27.1336H94.11C94.4525 27.1336 94.795 27.2195 95.0948 27.3482C95.3945 27.477 95.6514 27.6488 95.9083 27.9064C96.1223 28.121 96.3364 28.4216 96.4649 28.7221C96.5933 29.0226 96.679 29.3661 96.679 29.7096C96.679 30.053 96.5933 30.3536 96.4649 30.6541C96.3364 30.9546 96.1652 31.2122 95.9083 31.4269C95.6942 31.6415 95.3945 31.8133 95.0948 31.9421C94.795 32.0709 94.4525 32.1567 94.11 32.1567H86.1034V37.9956C86.1034 38.8113 86.2746 39.5841 86.5744 40.314C86.8741 41.0439 87.3022 41.6449 87.8588 42.203C88.4154 42.7182 89.0149 43.1476 89.7428 43.4481C90.4706 43.7486 91.2413 43.9204 92.0976 43.9204C92.8255 43.9204 93.5106 43.8345 94.1528 43.6198C94.795 43.4052 95.3517 43.0617 95.9083 42.5894C96.1652 42.3318 96.4649 42.1172 96.7646 41.9884C97.1071 41.8167 97.4068 41.7308 97.7922 41.7308C98.3488 41.7308 98.8626 41.9454 99.3335 42.3748C99.5904 42.6324 99.8045 42.9329 99.933 43.2334C100.061 43.5769 100.104 43.9204 100.061 44.2638C100.019 44.6073 99.933 44.9937 99.8045 45.2942C99.6333 45.6377 99.4192 45.9382 99.1623 46.1958C98.2203 47.0974 97.1927 47.7843 95.9939 48.2137C94.795 48.6859 93.5106 48.9006 92.1404 48.9006C90.5991 48.9006 89.1861 48.6001 87.8588 48.0419C86.5315 47.4838 85.3755 46.711 84.3479 45.7235C83.3632 44.7361 82.5496 43.5769 81.993 42.246C81.4364 40.9151 81.1367 39.4983 81.1367 37.9527V23.0979C81.1367 22.7544 81.2224 22.411 81.3508 22.1104C81.4792 21.8099 81.6933 21.5523 81.9074 21.2947C82.1215 21.08 82.4212 20.8654 82.7209 20.7366C83.0206 20.6078 83.3632 20.5219 83.7057 20.5219C84.0482 20.5219 84.3479 20.6078 84.6476 20.7366C84.9473 20.8654 85.2042 21.0371 85.4183 21.2947C85.6324 21.5094 85.8037 21.8099 85.9321 22.1104C86.0606 22.411 86.1462 22.7544 86.1462 23.0979V27.1336H86.1034Z" fill="white"/>
<path fill-rule="evenodd" clip-rule="evenodd" d="M118.6 35.9777C118.429 35.3337 118.172 34.7756 117.786 34.2604C117.444 33.7452 116.973 33.3159 116.502 32.9724C115.988 32.629 115.431 32.3284 114.789 32.1567C114.147 31.985 113.505 31.8991 112.777 31.8991C112.092 31.8991 111.407 31.985 110.765 32.1996C110.122 32.4143 109.566 32.6719 109.095 33.0154C108.581 33.3588 108.153 33.8311 107.81 34.3033C107.468 34.8185 107.211 35.3767 107.04 35.9777H118.6ZM107.211 40.0993C107.425 40.6574 107.682 41.1726 108.067 41.6449C108.41 42.1171 108.838 42.5035 109.309 42.847C109.78 43.1905 110.294 43.4481 110.893 43.6198C111.45 43.7915 112.049 43.8774 112.691 43.8774C114.275 43.8774 115.517 43.4481 116.416 42.6323C116.716 42.4177 117.016 42.2459 117.315 42.1601C117.615 42.0742 117.872 41.9883 118.129 41.9883C118.557 41.9883 118.942 42.1171 119.285 42.3318C119.627 42.5465 119.884 42.847 120.098 43.1905C120.27 43.4481 120.355 43.7057 120.441 44.0062C120.527 44.3067 120.527 44.5643 120.484 44.8648C120.441 45.1654 120.355 45.4659 120.227 45.7235C120.098 46.024 119.842 46.2816 119.585 46.4963C119.242 46.7968 118.857 47.0974 118.429 47.3979C118 47.6984 117.487 47.956 116.93 48.1707C116.373 48.3853 115.731 48.5571 115.046 48.6859C114.361 48.8147 113.548 48.9005 112.691 48.9005C111.15 48.9005 109.737 48.6 108.41 48.0419C107.082 47.4838 105.883 46.668 104.899 45.6806C103.914 44.6931 103.1 43.491 102.544 42.1601C101.944 40.8291 101.688 39.4124 101.688 37.8668C101.688 36.3212 101.987 34.9044 102.544 33.5735C103.143 32.2426 103.914 31.0834 104.899 30.053C105.883 29.0655 107.082 28.2927 108.41 27.6917C109.737 27.1335 111.193 26.833 112.691 26.833C114.19 26.833 115.603 27.1335 116.93 27.6917C118.257 28.2498 119.413 29.0226 120.441 30.01C121.469 30.9975 122.239 32.1567 122.839 33.4876C123.438 34.8185 123.738 36.2353 123.738 37.738C123.738 38.4678 123.524 39.026 123.053 39.4553C122.582 39.8846 121.982 40.0993 121.254 40.0993H107.211Z" fill="white"/>
<path fill-rule="evenodd" clip-rule="evenodd" d="M134.656 43.62C134.999 43.62 135.341 43.7059 135.641 43.8347C135.941 43.9635 136.198 44.1781 136.412 44.3928C136.626 44.6504 136.797 44.908 136.926 45.2085C137.054 45.509 137.097 45.8525 137.097 46.196C137.097 46.8829 136.883 47.484 136.412 47.9562C135.941 48.4285 135.341 48.6431 134.656 48.6431C133.629 48.6431 132.644 48.4714 131.702 48.1279C130.803 47.7845 129.989 47.2693 129.304 46.6682C128.619 46.0242 128.063 45.2514 127.677 44.3928C127.292 43.4912 127.078 42.5037 127.035 41.4304V21.3378C127.035 20.9943 127.078 20.6509 127.249 20.3503C127.378 20.0498 127.549 19.7922 127.763 19.5346C127.977 19.3199 128.234 19.1482 128.534 19.0194C128.833 18.8906 129.133 18.8047 129.476 18.8047C129.818 18.8047 130.161 18.8906 130.46 19.0194C130.76 19.1482 131.06 19.3199 131.274 19.5346C131.531 19.7493 131.702 20.0069 131.831 20.3503C131.959 20.6509 132.045 20.9943 132.045 21.3378V41.2157C132.045 42.0315 132.302 42.6325 132.773 43.0189C133.243 43.4053 133.886 43.62 134.656 43.62Z" fill="white"/>
<path fill-rule="evenodd" clip-rule="evenodd" d="M145.445 37.867C145.445 38.6827 145.616 39.4555 145.916 40.1854C146.216 40.9152 146.644 41.5592 147.2 42.1173C147.757 42.6755 148.399 43.1048 149.084 43.4053C149.812 43.7059 150.583 43.8776 151.396 43.8776C152.21 43.8776 153.023 43.7059 153.708 43.4053C154.436 43.1048 155.078 42.6755 155.592 42.1173C156.149 41.5592 156.577 40.9152 156.877 40.1854C157.176 39.4555 157.348 38.6827 157.348 37.867C157.348 37.0512 157.176 36.2355 156.877 35.5057C156.577 34.7758 156.149 34.1318 155.592 33.6166C155.036 33.0585 154.393 32.6292 153.708 32.3286C152.981 32.0281 152.21 31.8564 151.396 31.8564C150.583 31.8564 149.769 32.0281 149.084 32.3286C148.356 32.6292 147.714 33.0585 147.2 33.6166C146.644 34.1747 146.216 34.7758 145.916 35.5057C145.616 36.2785 145.445 37.0512 145.445 37.867ZM140.435 21.4237C140.435 21.0373 140.521 20.6938 140.649 20.3933C140.778 20.0927 140.949 19.7922 141.163 19.5775C141.377 19.3199 141.634 19.1482 141.977 19.0194C142.276 18.8906 142.619 18.8047 142.962 18.8047C143.347 18.8047 143.647 18.8906 143.946 19.0194C144.246 19.1482 144.503 19.3199 144.717 19.5775C144.931 19.8351 145.102 20.0927 145.231 20.3933C145.359 20.6938 145.402 21.0373 145.402 21.4237V28.6364C146.258 28.0783 147.2 27.606 148.228 27.3055C149.213 27.0049 150.283 26.8332 151.396 26.8332C152.938 26.8332 154.351 27.1337 155.678 27.6919C157.005 28.25 158.161 29.0657 159.146 30.0532C160.131 31.0406 160.901 32.1998 161.501 33.5737C162.058 34.9046 162.357 36.3643 162.357 37.867C162.357 39.3696 162.058 40.7864 161.501 42.1603C160.944 43.4912 160.131 44.6933 159.146 45.6808C158.161 46.6682 157.005 47.484 155.678 48.0421C154.351 48.6002 152.938 48.9007 151.396 48.9007C149.898 48.9007 148.485 48.6002 147.115 48.0421C145.787 47.484 144.589 46.6682 143.604 45.6808C142.619 44.6933 141.806 43.4912 141.249 42.1603C140.692 40.8293 140.393 39.4126 140.393 37.867V21.4237H140.435Z" fill="white"/>
<path fill-rule="evenodd" clip-rule="evenodd" d="M171.136 46.1099C171.136 46.4534 171.05 46.7539 170.921 47.0974C170.793 47.3979 170.622 47.6555 170.408 47.9131C170.194 48.1278 169.937 48.2995 169.637 48.4283C169.337 48.5571 168.995 48.643 168.652 48.643C168.31 48.643 168.01 48.5571 167.667 48.4283C167.368 48.2995 167.111 48.1278 166.854 47.9131C166.64 47.6985 166.426 47.4409 166.297 47.0974C166.169 46.7969 166.083 46.4534 166.083 46.1099V29.6237C166.083 29.2802 166.169 28.9797 166.297 28.6792C166.426 28.3786 166.64 28.121 166.854 27.8634C167.068 27.6488 167.368 27.4341 167.667 27.3053C167.967 27.1765 168.31 27.0906 168.652 27.0906C168.995 27.0906 169.337 27.1765 169.637 27.3053C169.937 27.4341 170.194 27.6058 170.408 27.8634C170.622 28.0781 170.793 28.3786 170.921 28.6792C171.05 28.9797 171.093 29.2802 171.093 29.6237V46.1099H171.136ZM165.869 22.0246C165.869 21.6382 165.955 21.2947 166.083 20.9512C166.212 20.6078 166.426 20.3072 166.683 20.0926C166.94 19.835 167.239 19.6633 167.539 19.4915C167.881 19.3627 168.224 19.2769 168.609 19.2769C168.995 19.2769 169.337 19.3627 169.68 19.4915C170.022 19.6203 170.322 19.835 170.579 20.0926C170.836 20.3502 171.05 20.6507 171.178 20.9512C171.307 21.2947 171.392 21.6382 171.392 22.0246C171.392 22.411 171.307 22.7544 171.178 23.055C171.05 23.3984 170.836 23.656 170.579 23.9136C170.322 24.1712 170.022 24.3429 169.68 24.5147C169.337 24.6435 168.995 24.7293 168.609 24.7293C168.224 24.7293 167.881 24.6435 167.539 24.5147C167.196 24.3859 166.897 24.1712 166.683 23.9136C166.426 23.656 166.254 23.3984 166.083 23.055C165.955 22.7544 165.869 22.368 165.869 22.0246Z" fill="white"/>
<path fill-rule="evenodd" clip-rule="evenodd" d="M181.025 27.1336H189.032C189.374 27.1336 189.717 27.2195 190.017 27.3482C190.316 27.477 190.573 27.6488 190.83 27.9064C191.044 28.121 191.258 28.4216 191.387 28.7221C191.515 29.0226 191.601 29.3661 191.601 29.7096C191.601 30.053 191.558 30.3536 191.387 30.6541C191.258 30.9546 191.087 31.2122 190.83 31.4269C190.616 31.6415 190.316 31.8133 190.017 31.9421C189.717 32.0709 189.374 32.1567 189.032 32.1567H181.025V37.9956C181.025 38.8113 181.197 39.5841 181.496 40.314C181.796 41.0439 182.224 41.6449 182.781 42.203C183.337 42.7182 183.937 43.1476 184.665 43.4481C185.392 43.7486 186.163 43.9204 187.019 43.9204C187.747 43.9204 188.432 43.8345 189.075 43.6198C189.717 43.4052 190.274 43.0617 190.83 42.5894C191.087 42.3318 191.387 42.1172 191.686 41.9884C192.029 41.8167 192.329 41.7308 192.714 41.7308C193.271 41.7308 193.784 41.9454 194.255 42.3748C194.512 42.6324 194.726 42.9329 194.855 43.2334C194.983 43.5769 195.026 43.9204 194.983 44.2638C194.94 44.6073 194.855 44.9937 194.726 45.2942C194.555 45.6377 194.341 45.9382 194.084 46.1958C193.185 47.0974 192.115 47.7843 190.916 48.2137C189.717 48.6859 188.432 48.9006 187.062 48.9006C185.521 48.9006 184.108 48.6001 182.781 48.0419C181.453 47.4838 180.297 46.711 179.27 45.7235C178.285 44.7361 177.472 43.5769 176.915 42.246C176.358 40.9151 176.059 39.4983 176.059 37.9527V23.0979C176.059 22.7544 176.144 22.411 176.273 22.1104C176.401 21.8099 176.615 21.5523 176.829 21.2947C177.043 21.08 177.343 20.8654 177.643 20.7366C177.942 20.6078 178.285 20.5219 178.628 20.5219C178.97 20.5219 179.27 20.6078 179.57 20.7366C179.869 20.8654 180.126 21.0371 180.34 21.2947C180.554 21.5094 180.726 21.8099 180.854 22.1104C180.982 22.411 181.068 22.7544 181.068 23.0979V27.1336H181.025Z" fill="white"/>
</svg>
