<?xml version="1.0" encoding="UTF-8" standalone="no"?>
<svg
   xmlns:dc="http://purl.org/dc/elements/1.1/"
   xmlns:cc="http://creativecommons.org/ns#"
   xmlns:rdf="http://www.w3.org/1999/02/22-rdf-syntax-ns#"
   xmlns:svg="http://www.w3.org/2000/svg"
   xmlns="http://www.w3.org/2000/svg"
   xmlns:sodipodi="http://sodipodi.sourceforge.net/DTD/sodipodi-0.dtd"
   xmlns:inkscape="http://www.inkscape.org/namespaces/inkscape"
   width="18.852"
   height="18.862"
   viewBox="0 0 18.852 18.862"
   version="1.1"
   id="svg7"
   sodipodi:docname="phone-blue.svg"
   inkscape:version="0.92.5 (2060ec1f9f, 2020-04-08)">
  <metadata
     id="metadata11">
    <rdf:RDF>
      <cc:Work
         rdf:about="">
        <dc:format>image/svg+xml</dc:format>
        <dc:type
           rdf:resource="http://purl.org/dc/dcmitype/StillImage" />
        <dc:title></dc:title>
      </cc:Work>
    </rdf:RDF>
  </metadata>
  <sodipodi:namedview
     pagecolor="#ffffff"
     bordercolor="#666666"
     borderopacity="1"
     objecttolerance="10"
     gridtolerance="10"
     guidetolerance="10"
     inkscape:pageopacity="0"
     inkscape:pageshadow="2"
     inkscape:window-width="1366"
     inkscape:window-height="740"
     id="namedview9"
     showgrid="false"
     inkscape:zoom="12.511929"
     inkscape:cx="9.4259996"
     inkscape:cy="9.4309998"
     inkscape:window-x="0"
     inkscape:window-y="0"
     inkscape:window-maximized="1"
     inkscape:current-layer="svg7" />
  <defs
     id="defs4">
    <style
       id="style2">
      .cls-1 {
        fill: none;
        stroke: #f1f0f5;
        stroke-linecap: round;
        stroke-linejoin: round;
        stroke-width: 1.5px;
      }
    </style>
  </defs>
  <path
     id="Caminho_659"
     data-name="Caminho 659"
     class="cls-1"
     d="M3.75,17.41,6.14,19.8A2,2,0,0,0,9,19.8l1.36-1.36a2,2,0,0,0,0-2.83l-.89-.9h0a16.48,16.48,0,0,1,5.64-5.65h0l.89.9a2,2,0,0,0,2.83,0l1.34-1.33a2,2,0,0,0,0-2.83L17.78,3.39a1,1,0,0,0-1.26-.13h0A46,46,0,0,0,3.63,16.15h0a1,1,0,0,0,.12,1.26Z"
     transform="translate(-2.655 -2.289)"
     style="stroke:#1c1c38;stroke-opacity:1" />
</svg>
