<svg xmlns="http://www.w3.org/2000/svg" width="21.842" height="22.682" viewBox="0 0 21.842 22.682">
  <defs>
    <style>
      .cls-1, .cls-2 {
        fill: none;
        stroke: #f1f0f5;
        stroke-linecap: round;
        stroke-linejoin: round;
        stroke-width: 1.5px;
      }

      .cls-1 {
        fill-rule: evenodd;
      }
    </style>
  </defs>
  <g id="ic-security-safety" transform="translate(-1.218 -0.657)">
    <path id="Caminho_1369" data-name="Caminho 1369" class="cls-1" d="M18.79,4.47a7.35,7.35,0,0,1-2-.16A7.46,7.46,0,0,1,14.6,3.12,14.91,14.91,0,0,1,13,1.81a1.15,1.15,0,0,0-1.57,0A18.079,18.079,0,0,1,9.89,3.1a7.77,7.77,0,0,1-2.2,1.22,8,8,0,0,1-2.28.18,17.22,17.22,0,0,1-1.87-.18,1.14,1.14,0,0,0-1.3,1C2.19,5.8,2.06,7.05,2,8.44a16.94,16.94,0,0,0,.26,4.15,13,13,0,0,0,3.85,5.85,32.09,32.09,0,0,0,4.62,3.62,2.65,2.65,0,0,0,3,0,31.88,31.88,0,0,0,4.36-3.67,13.3,13.3,0,0,0,3.63-5.76"/>
    <path id="Caminho_1370" data-name="Caminho 1370" class="cls-2" d="M11,11l2.86,2.86a.19.19,0,0,0,.28,0L22,6"/>
  </g>
</svg>
