<svg width="186" height="32" viewBox="0 0 186 32" fill="none" xmlns="http://www.w3.org/2000/svg">
<path d="M1.49698 25.5022H15.5045C17.9638 25.5022 19.3004 25.2883 20.0489 24.7537C21.0112 24.1656 21.5458 23.1498 21.5458 21.9201C21.5458 20.4766 20.7974 19.2469 19.5677 18.6588C18.9261 18.2846 17.6965 18.1242 16.2529 18.1242H10.5858C6.89681 18.1242 4.49095 17.4826 2.88704 16.0926C1.01581 14.4886 0 11.9759 0 9.30267C0 5.39983 2.19201 1.97815 5.34636 0.855418C6.73642 0.320781 8.34033 0.213851 11.9224 0.213851H27.1595V5.72061H13.4194C10.5323 5.77407 10.265 5.77407 9.30267 5.98793C8.01955 6.30871 7.21759 7.48491 7.21759 9.14228C7.21759 10.5323 7.85915 11.6551 8.98189 12.1362C9.89077 12.564 10.6393 12.6174 12.8313 12.6174H17.7499C22.2943 12.6174 24.7002 13.3124 26.518 15.1302C27.908 16.5203 28.8169 19.2469 28.8169 21.9201C28.8169 25.1814 27.3199 28.2288 24.9141 29.7258C23.4171 30.6881 21.4389 30.9554 16.8945 30.9554H1.49698V25.5022ZM46.4064 0C42.0759 0 38.28 1.06927 35.8741 2.99396C32.8267 5.39983 31.2228 9.89077 31.2228 15.7718C31.2228 19.8885 32.0782 23.2567 33.896 25.7695C36.3018 29.2446 40.9531 31.1693 46.8341 31.1693C51.0043 31.1693 54.4794 30.1535 56.7784 28.2823C59.8258 25.8229 61.5367 21.3855 61.5367 16.0391V15.1837L61.4832 14.3283V13.4728L61.2693 11.8689L61.1089 11.067L60.7882 9.56999L60.5743 8.8215L60.0397 7.21759L59.8793 6.89681L58.7565 5.02558L58.5961 4.81173C56.2972 1.71084 51.9132 0 46.4064 0ZM46.4599 5.23944C51.9667 5.23944 54.3725 8.44726 54.3725 15.6649C54.3725 22.7755 51.8597 26.0368 46.4599 26.0368C40.9531 26.0368 38.4404 22.7755 38.4404 15.5579V12.7778L38.6542 11.7085L39.1354 9.78385L39.4562 8.8215L39.7769 8.34032C41.1135 6.36217 43.4659 5.23944 46.4599 5.23944ZM65.1187 31.0089H71.6413V20.2627H82.1736C85.7022 20.2627 87.3596 19.7815 89.1239 18.2846C91.2624 16.4668 92.5456 13.4728 92.5456 10.265C92.5456 7.53837 91.5832 5.02558 89.7654 3.04743C87.7338 0.801953 85.8626 0.213851 80.4628 0.213851H65.1187V31.0089ZM71.6413 5.72061H80.6766C81.7459 5.72061 82.5479 5.82754 83.0825 5.98793C84.526 6.4691 85.328 7.96608 85.328 9.9977C85.328 11.7085 84.7933 13.2055 83.9914 13.8471L83.6171 14.2213L82.9756 14.5421H82.8686L82.6548 14.649H71.6413V5.72061ZM120.507 31.0089H113.984V18.338H102.116V31.0089H95.593V0.267318H102.116V12.8313H113.984V0.267318H120.507V31.0089ZM139.647 0C135.316 0 131.521 1.06927 129.115 2.99396C126.067 5.39983 124.463 9.89077 124.463 15.7718C124.463 19.8885 125.319 23.2567 127.137 25.7695C129.542 29.2446 134.194 31.1693 140.075 31.1693C144.245 31.1693 147.72 30.1535 150.019 28.2823C153.066 25.8229 154.777 21.3855 154.777 16.0391V15.1837L154.67 13.4728L154.563 12.6709L154.51 11.8689L154.403 11.067L154.082 9.56999L153.868 8.8215L153.227 6.89681L152.104 5.02558L151.944 4.81173C149.484 1.71084 145.1 0 139.647 0ZM139.647 5.23944C145.154 5.23944 147.56 8.44726 147.56 15.6649C147.56 22.7755 145.047 26.0368 139.647 26.0368C134.14 26.0368 131.627 22.7755 131.627 15.5579V12.7778L131.841 11.7085L132.323 9.78385L132.643 8.8215L132.964 8.34032C134.301 6.36217 136.653 5.23944 139.647 5.23944ZM158.68 25.5022H172.688C175.147 25.5022 176.483 25.2883 177.232 24.7537C178.194 24.1656 178.729 23.1498 178.729 21.9201C178.729 20.4766 177.98 19.2469 176.751 18.6588C176.109 18.2846 174.933 18.1242 173.436 18.1242H167.769C164.08 18.1242 161.674 17.4826 160.07 16.0926C158.252 14.4886 157.183 11.9759 157.183 9.30267C157.183 5.39983 159.375 1.97815 162.529 0.855418C163.92 0.320781 165.523 0.213851 169.105 0.213851H184.343V5.72061H170.602C167.715 5.77407 167.448 5.77407 166.486 5.98793C165.203 6.30871 164.401 7.48491 164.401 9.14228C164.401 10.5323 165.042 11.6551 166.165 12.1362C167.074 12.564 167.822 12.6174 170.014 12.6174H174.933C179.477 12.6174 181.883 13.3124 183.701 15.1302C185.091 16.5203 186 19.2469 186 21.9201C186 25.1814 184.503 28.2288 182.097 29.7258C180.6 30.6881 178.622 30.9554 174.078 30.9554H158.627L158.68 25.5022Z" fill="white"/>
</svg>
