<svg width="183" height="34" viewBox="0 0 183 34" fill="none" xmlns="http://www.w3.org/2000/svg">
<path d="M33.4985 0.667245C32.0144 -0.133449 30.2248 0.489313 29.4391 2.04622L18.614 25.8446C18.3521 26.3339 18.1339 26.6898 17.5664 26.6898C16.999 26.6898 16.7808 26.3339 16.5189 25.8446L5.6938 2.0907C4.95176 0.489313 3.11849 -0.133449 1.63441 0.711728C0.150328 1.51242 -0.417114 3.46967 0.324926 5.07106L10.9317 27.0457L12.1539 29.5367C13.2015 31.7164 15.2967 33.0954 17.5664 33.0954C19.8799 33.0954 21.9314 31.7164 22.979 29.5367L24.2012 27.0457L34.7643 5.02658C35.55 3.42519 34.9826 1.51242 33.4985 0.667245Z" fill="white"/>
<path d="M177.673 0.311381C175.621 0.311381 173.831 1.60139 173.002 3.38071C170.252 9.11902 162.133 26.156 162.133 26.2005C162.09 26.2895 161.915 26.6898 161.566 26.6898C161.26 26.6898 161.042 26.3339 160.998 26.2005C158.336 20.5512 153.011 9.38592 150.261 3.60312C149.169 1.37897 147.38 0.311381 145.459 0.311381C142.491 0.311381 140.047 2.8914 140.047 6.36107V29.8036C140.047 31.2271 140.832 32.5616 142.055 32.9619C144.062 33.6292 145.765 31.8498 145.765 29.7591L145.328 6.93935C145.328 6.71694 145.59 6.62797 145.721 6.8059L156.721 29.5812C157.768 31.7609 159.514 33.0509 161.479 33.0509C163.443 33.0509 165.232 31.7609 166.236 29.5812L177.28 6.76142C177.367 6.539 177.673 6.62797 177.673 6.89487L177.236 29.8481C177.236 31.6719 178.589 33.1398 180.204 33.0509C181.776 33.0064 182.998 31.4495 182.998 29.7147C182.998 29.7147 182.998 12.1883 182.998 6.36107C183.085 2.84691 180.641 0.355864 177.673 0.311381Z" fill="white"/>
<path d="M136.293 28.3357L124.115 3.82554C123.067 1.64587 120.972 0.311381 118.702 0.311381C117.262 0.311381 115.909 0.845177 114.861 1.77932C114.206 2.3576 113.682 3.02484 113.29 3.87002L101.155 28.2467C101.155 28.2912 101.111 28.2912 101.111 28.3357V28.3802C100.544 29.5367 100.675 30.8267 101.33 31.8054C101.33 31.8498 101.373 31.8498 101.373 31.8943C101.373 31.9388 101.417 31.9388 101.417 31.9833C101.635 32.2502 101.897 32.5171 102.203 32.695C103.25 33.3178 104.429 33.2288 105.345 32.5616C105.345 32.5616 105.389 32.5616 105.389 32.5171C105.476 32.4726 105.52 32.4281 105.564 32.3836C105.607 32.3391 105.651 32.2947 105.695 32.2502L105.738 32.2057C105.957 31.9833 106.131 31.7164 106.306 31.405L106.742 30.4264L109.274 24.9995C109.318 24.866 109.492 24.777 109.623 24.777H120.928C122.412 24.777 123.635 23.487 123.635 21.8412C123.635 20.2398 122.412 18.9053 120.928 18.9053H112.548C112.373 18.9053 112.242 18.7273 112.329 18.5494L112.94 17.2149L117.524 7.82901V7.78453C117.524 7.78453 117.524 7.74004 117.567 7.74004C117.655 7.56211 117.873 6.89487 118.309 6.76142C118.571 6.67245 118.789 6.67245 118.964 6.76142C119.444 6.89487 119.619 7.47315 119.837 7.91798L130.924 31.405C131.448 32.4726 132.495 33.0954 133.587 33.0954C133.936 33.0954 134.285 33.0509 134.591 32.9174C134.591 32.9174 134.634 32.9174 134.634 32.8729C134.721 32.8285 134.809 32.784 134.896 32.7395C134.94 32.7395 134.94 32.695 134.983 32.695C134.983 32.695 135.027 32.695 135.027 32.6505C135.071 32.6505 135.071 32.606 135.114 32.606C135.158 32.606 135.202 32.5616 135.202 32.5171C135.245 32.5171 135.245 32.4726 135.289 32.4726C135.333 32.4281 135.376 32.3836 135.42 32.3836C135.464 32.3391 135.507 32.2947 135.551 32.2502L135.594 32.2057C136.686 31.2716 136.948 29.6702 136.293 28.3357Z" fill="white"/>
<path d="M41.7046 20.2398H62.2198C62.6126 20.2398 65.799 19.9729 65.799 16.3253C65.799 7.3397 58.9897 0 50.5654 0C42.1411 0 35.2881 7.3397 35.2881 16.3253C35.2881 16.5477 35.2881 17.0815 35.2881 17.1704C35.2881 27.446 41.7482 33.0064 50.3472 33.4957C50.74 33.5402 51.1765 33.5402 51.5693 33.5402C54.8867 33.5402 57.6366 32.6505 60.6921 30.7378C60.9976 30.5598 62.2198 29.7147 63.442 28.1133C64.4459 26.8233 64.4896 24.9105 63.442 23.8874C61.9142 22.4194 60.2992 23.2201 58.9024 24.4657C56.6763 26.3784 54.974 27.8908 50.5217 27.8908C46.3314 27.8908 42.403 25.4443 41.4427 20.5956C41.4427 20.4177 41.53 20.2398 41.7046 20.2398ZM41.4427 14.2346C42.0101 9.51936 45.1965 5.33796 50.5217 5.33796C55.847 5.33796 59.208 9.4304 59.7318 14.2346C59.7318 14.4125 59.6445 14.5904 59.4699 14.5904H41.7046C41.53 14.5459 41.4427 14.4125 41.4427 14.2346Z" fill="white"/>
<path d="M75.7511 20.2398H96.2663C96.6592 20.2398 99.8456 19.9729 99.8456 16.3253C99.8019 7.3397 92.9926 0 84.6119 0C76.2313 0 69.3783 7.3397 69.3783 16.3253C69.3783 16.5477 69.3783 17.0815 69.3783 17.1704C69.3783 27.446 75.8384 33.0064 84.4373 33.4957C84.8302 33.5402 85.2667 33.5402 85.6595 33.5402C88.9769 33.5402 91.7268 32.6505 94.7823 30.7378C95.0878 30.5598 96.31 29.7147 97.5322 28.1133C98.5361 26.8233 98.5798 24.9105 97.5322 23.8874C96.0044 22.4194 94.3894 23.2201 92.9926 24.4657C90.7665 26.3784 89.0642 27.8908 84.6119 27.8908C80.4216 27.8908 76.4932 25.4443 75.5329 20.5956C75.4892 20.4177 75.6202 20.2398 75.7511 20.2398ZM75.5329 14.2346C76.1003 9.51936 79.2867 5.33796 84.6119 5.33796C89.9372 5.33796 93.2982 9.4304 93.822 14.2346C93.822 14.4125 93.7347 14.5904 93.5601 14.5904H75.7948C75.6202 14.5459 75.4892 14.4125 75.5329 14.2346Z" fill="white"/>
</svg>
