<svg width="203" height="31" viewBox="0 0 203 31" fill="none" xmlns="http://www.w3.org/2000/svg">
<path d="M86.956 28.6009L78.0669 3.87039C77.9896 3.56126 77.7577 3.09756 77.7577 2.71115C77.7577 1.62919 78.6853 0.624514 79.922 0.624514C81.0815 0.624514 81.7771 1.32006 82.1636 2.40202L89.5067 23.6548L96.9272 2.32474C97.2363 1.32006 97.932 0.547232 99.0914 0.547232H99.3233C100.483 0.547232 101.256 1.24278 101.565 2.32474L108.908 23.6548L116.328 2.32474C116.638 1.39734 117.256 0.624514 118.415 0.624514C119.652 0.624514 120.58 1.55191 120.58 2.63387C120.58 3.02028 120.425 3.48398 120.271 3.79311L111.382 28.5236C110.918 29.8374 109.99 30.4557 108.985 30.4557H108.831C107.671 30.4557 106.821 29.7601 106.435 28.5236L99.1687 7.57997L91.8256 28.6009C91.4391 29.9147 90.5889 30.533 89.4294 30.533H89.2748C88.27 30.533 87.3424 29.8374 86.956 28.6009Z" fill="white"/>
<path d="M151.498 2.78843C151.498 1.62919 152.426 0.547232 153.663 0.547232C154.899 0.547232 155.904 1.47463 155.904 2.78843V7.81182C158.068 2.943 162.783 0.624514 165.953 0.624514C167.267 0.624514 168.117 1.55191 168.117 2.78843C168.117 3.94768 167.344 4.79779 166.184 5.02964C160.542 5.72518 155.904 9.97574 155.904 18.3996V28.2918C155.904 29.451 154.977 30.4557 153.74 30.4557C152.503 30.4557 151.498 29.5283 151.498 28.2918V2.78843Z" fill="white"/>
<path d="M182.03 30.7648C174.146 30.7648 167.73 24.6595 167.73 15.6947V15.5401C167.73 7.19356 173.528 0.469949 181.489 0.469949C189.992 0.469949 194.784 7.4254 194.784 15.1537C194.784 16.3129 193.857 17.163 192.774 17.163H172.059C172.677 23.423 177.006 26.978 182.108 26.978C185.663 26.978 188.214 25.5869 190.378 23.6548C190.687 23.3457 191.074 23.1911 191.615 23.1911C192.697 23.1911 193.47 24.0412 193.47 25.0459C193.47 25.5096 193.238 26.0506 192.774 26.437C190.146 29.0646 186.9 30.7648 182.03 30.7648ZM190.533 14.0717C190.069 8.81649 187.132 4.25681 181.412 4.25681C176.388 4.25681 172.677 8.43008 172.136 14.0717H190.533Z" fill="white"/>
<path d="M120.657 21.7227V21.6454C120.657 15.5401 125.759 12.2169 133.102 12.2169C136.812 12.2169 139.44 12.7579 142.068 13.4535V12.3715C142.068 7.11627 138.822 4.41137 133.411 4.41137C130.474 4.41137 128.773 4.79779 126.609 5.72518C126.3 5.80246 126.068 5.87975 125.836 5.87975C124.831 5.87975 123.904 5.02964 123.904 4.02496C123.904 3.09756 124.29 2.55659 125.063 2.24745C127.923 1.01093 130.087 0.624514 133.797 0.624514C137.894 0.624514 141.063 1.70647 143.228 3.87039C145.237 5.87975 146.242 8.66193 146.242 12.3715V28.4463C146.242 29.6829 145.315 30.6103 144.155 30.6103C142.918 30.6103 142.068 29.6829 142.068 28.6009V25.8187C140.058 28.4463 136.657 30.8421 131.556 30.8421C126.145 30.7648 120.657 27.6735 120.657 21.7227ZM142.145 19.4815V16.6993C139.981 16.0811 137.121 15.4628 133.566 15.4628C128.078 15.4628 125.063 17.8586 125.063 21.4909V21.5682C125.063 25.2005 128.464 27.3644 132.406 27.3644C137.74 27.3644 142.145 24.0412 142.145 19.4815Z" fill="white"/>
<path d="M7.95932 2.4793C7.03176 0.392666 4.63558 -0.612011 2.47129 0.392666C0.229702 1.39734 -0.54326 3.79311 0.384294 5.87975L9.65983 25.9733C11.1285 29.1419 12.6744 30.7648 15.5343 30.7648C18.6262 30.7648 19.9402 28.9873 21.4088 25.9733C21.4088 25.9733 29.4476 8.43008 29.5249 8.19823C29.6022 8.04367 29.8341 7.4254 30.6844 7.4254C31.38 7.4254 31.9984 7.96638 31.9984 8.73921V25.896C31.9984 28.5236 33.467 30.6875 36.327 30.6875C39.187 30.6875 40.6556 28.5236 40.6556 25.896V11.9078C40.6556 9.20291 42.588 7.4254 45.216 7.4254C47.8441 7.4254 49.6219 9.28019 49.6219 11.9078V25.9733C49.6219 28.6009 51.0906 30.7648 53.9505 30.7648C56.8105 30.7648 58.2791 28.6009 58.2791 25.9733V11.9078C58.2791 9.20291 60.2115 7.4254 62.8396 7.4254C65.4676 7.4254 67.2454 9.28019 67.2454 11.9078V25.9733C67.2454 28.6009 68.7141 30.7648 71.574 30.7648C74.3567 30.7648 75.9026 28.6009 75.9026 25.9733V9.97574C75.9026 4.10224 71.1876 0.00625176 65.5449 0.00625176C59.825 0.00625176 56.2694 3.94768 56.2694 3.94768C54.4143 1.47463 51.7862 0.00625176 47.3803 0.00625176C42.7426 0.00625176 38.6459 3.94768 38.6459 3.94768C36.7135 1.47463 33.5443 0.00625176 30.839 0.00625176C26.7423 0.00625176 23.4185 1.78376 21.4088 6.42073L15.5343 20.3316L7.95932 2.4793Z" fill="white"/>
<path d="M195.171 4.17952C195.171 2.17017 196.794 0.547232 198.803 0.547232C200.813 0.547232 202.436 2.17017 202.436 4.17952C202.436 6.18888 200.813 7.81182 198.803 7.81182C196.716 7.81182 195.171 6.18888 195.171 4.17952ZM201.663 4.17952C201.663 2.55659 200.427 1.24278 198.726 1.24278C197.103 1.24278 195.789 2.55659 195.789 4.17952C195.789 5.80246 197.026 7.11627 198.726 7.11627C200.349 7.11627 201.663 5.80246 201.663 4.17952Z" fill="white"/>
<path d="M197.335 2.71115C197.335 2.4793 197.489 2.32474 197.721 2.32474H198.958C199.422 2.32474 199.731 2.4793 199.963 2.71115C200.195 2.86572 200.272 3.17485 200.272 3.48398C200.272 4.02496 199.963 4.33409 199.576 4.56594L200.117 5.1842C200.195 5.26148 200.272 5.33877 200.272 5.49333C200.272 5.72518 200.117 5.87975 199.886 5.87975C199.731 5.87975 199.576 5.80246 199.499 5.6479L198.726 4.7205H198.108V5.49333C198.108 5.72518 197.953 5.87975 197.721 5.87975C197.489 5.87975 197.335 5.72518 197.335 5.49333V2.71115ZM198.881 4.02496C199.267 4.02496 199.499 3.79311 199.499 3.56126C199.499 3.25213 199.267 3.09757 198.881 3.09757H198.108V4.10224H198.881V4.02496Z" fill="white"/>
</svg>
