<svg width="152" height="23" viewBox="0 0 152 23" fill="none" xmlns="http://www.w3.org/2000/svg">
<g clip-path="url(#clip0_1_2)">
<path d="M7.45 5.155V14.14C7.45 14.3 7.47 14.415 7.51 14.485C7.56 14.545 7.675 14.575 7.855 14.575H9.475V16H7.27C6.54 16 5.985 15.875 5.605 15.625C5.235 15.375 5.05 14.94 5.05 14.32V6.01C5.05 5.66 5.1 5.43 5.2 5.32C5.31 5.21 5.535 5.155 5.875 5.155H7.45ZM9.925 8.5H11.485C11.785 8.5 12 8.585 12.13 8.755C12.26 8.915 12.325 9.18 12.325 9.55V14.14C12.325 14.3 12.345 14.415 12.385 14.485C12.435 14.545 12.55 14.575 12.73 14.575H14.35V16H10.465C10.305 16 10.175 15.945 10.075 15.835C9.975 15.725 9.925 15.58 9.925 15.4V8.5ZM14.95 5.155H16.525C16.865 5.155 17.09 5.21 17.2 5.32C17.31 5.43 17.365 5.66 17.365 6.01V15.4C17.365 15.58 17.31 15.725 17.2 15.835C17.1 15.945 16.97 16 16.81 16H14.95V5.155ZM21.5187 16H21.4887C20.4987 16 19.8887 15.83 19.6587 15.49C19.5487 15.33 19.4587 15.175 19.3887 15.025C19.3287 14.875 19.2887 14.64 19.2687 14.32C19.2187 13.74 19.1937 13.095 19.1937 12.385C19.1937 11.675 19.1987 11.165 19.2087 10.855C19.2187 10.535 19.2487 10.215 19.2987 9.895C19.3587 9.565 19.4337 9.33 19.5237 9.19C19.6137 9.04 19.7487 8.905 19.9287 8.785C20.1087 8.665 20.3187 8.59 20.5587 8.56C20.7987 8.52 21.1087 8.5 21.4887 8.5H21.5187V16ZM25.5087 13.63V14.395C25.5087 15.465 24.9637 16 23.8737 16H21.9837V14.875H22.7937C23.0037 14.875 23.1337 14.845 23.1837 14.785C23.2337 14.715 23.2587 14.595 23.2587 14.425V13.945C23.2587 13.795 23.2737 13.71 23.3037 13.69C23.3437 13.67 23.3687 13.66 23.3787 13.66C23.3887 13.65 23.4137 13.645 23.4537 13.645C23.5037 13.635 23.5387 13.63 23.5587 13.63C24.2087 13.63 24.8587 13.63 25.5087 13.63ZM21.9837 8.5H23.7237C24.4137 8.5 24.8837 8.635 25.1337 8.905C25.3837 9.175 25.5087 9.575 25.5087 10.105V11.425C25.5087 12.325 25.0187 12.775 24.0387 12.775H21.8337V11.65H22.6437C22.8837 11.65 23.0437 11.62 23.1237 11.56C23.2137 11.5 23.2587 11.385 23.2587 11.215V10.075C23.2587 9.905 23.2337 9.79 23.1837 9.73C23.1337 9.66 23.0037 9.625 22.7937 9.625H21.9837V8.5ZM29.3267 16H28.4117C27.9717 16 27.6367 15.895 27.4067 15.685C27.1867 15.465 27.0767 15.185 27.0767 14.845V6.31C27.0767 5.97 27.1867 5.695 27.4067 5.485C27.6367 5.265 27.9717 5.155 28.4117 5.155H29.3267V16ZM29.7767 8.5H31.2317C31.6117 8.5 31.9217 8.52 32.1617 8.56C32.4017 8.59 32.6117 8.665 32.7917 8.785C32.9717 8.905 33.1067 9.04 33.1967 9.19C33.2867 9.33 33.3617 9.56 33.4217 9.88C33.4917 10.33 33.5267 10.96 33.5267 11.77C33.5267 12.58 33.5217 13.13 33.5117 13.42C33.5017 13.7 33.4817 14 33.4517 14.32C33.4317 14.64 33.3867 14.875 33.3167 15.025C33.2567 15.175 33.1717 15.33 33.0617 15.49C32.9617 15.64 32.8267 15.745 32.6567 15.805C32.2867 15.935 31.8117 16 31.2317 16H29.7767V14.875H30.5867C30.8467 14.875 31.0117 14.84 31.0817 14.77C31.1617 14.7 31.2017 14.59 31.2017 14.44V10.075C31.2017 9.915 31.1617 9.8 31.0817 9.73C31.0117 9.66 30.8467 9.625 30.5867 9.625H29.7767V8.5ZM45.5738 10.555L45.5888 13.09C45.5888 14.28 45.4388 15.065 45.1388 15.445C44.8388 15.815 44.2938 16 43.5038 16H41.2988V14.575H42.4088C42.6588 14.575 42.8238 14.545 42.9038 14.485C42.9838 14.425 43.0238 14.31 43.0238 14.14V7.03C43.0238 6.85 42.9838 6.73 42.9038 6.67C42.8238 6.61 42.6588 6.58 42.4088 6.58H41.2988V5.155H43.6538C44.3838 5.155 44.8888 5.325 45.1688 5.665C45.4588 5.995 45.6038 6.645 45.6038 7.615L45.5738 10.555ZM40.8488 16.015H39.2738C38.9438 16.015 38.7238 15.96 38.6138 15.85C38.5038 15.73 38.4488 15.5 38.4488 15.16V6.01C38.4488 5.67 38.5038 5.445 38.6138 5.335C38.7238 5.215 38.9438 5.155 39.2738 5.155H40.8488V16.015ZM49.7023 16H49.6723C48.6823 16 48.0723 15.83 47.8423 15.49C47.7323 15.33 47.6423 15.175 47.5723 15.025C47.5123 14.875 47.4723 14.64 47.4523 14.32C47.4023 13.74 47.3773 13.095 47.3773 12.385C47.3773 11.675 47.3823 11.165 47.3923 10.855C47.4023 10.535 47.4323 10.215 47.4823 9.895C47.5423 9.565 47.6173 9.33 47.7073 9.19C47.7973 9.04 47.9323 8.905 48.1123 8.785C48.2923 8.665 48.5023 8.59 48.7423 8.56C48.9823 8.52 49.2923 8.5 49.6723 8.5H49.7023V16ZM53.6923 13.63V14.395C53.6923 15.465 53.1473 16 52.0573 16H50.1673V14.875H50.9773C51.1873 14.875 51.3173 14.845 51.3673 14.785C51.4173 14.715 51.4423 14.595 51.4423 14.425V13.945C51.4423 13.795 51.4573 13.71 51.4873 13.69C51.5273 13.67 51.5523 13.66 51.5623 13.66C51.5723 13.65 51.5973 13.645 51.6373 13.645C51.6873 13.635 51.7223 13.63 51.7423 13.63C52.3923 13.63 53.0423 13.63 53.6923 13.63ZM50.1673 8.5H51.9073C52.5973 8.5 53.0673 8.635 53.3173 8.905C53.5673 9.175 53.6923 9.575 53.6923 10.105V11.425C53.6923 12.325 53.2023 12.775 52.2223 12.775H50.0173V11.65H50.8273C51.0673 11.65 51.2273 11.62 51.3073 11.56C51.3973 11.5 51.4423 11.385 51.4423 11.215V10.075C51.4423 9.905 51.4173 9.79 51.3673 9.73C51.3173 9.66 51.1873 9.625 50.9773 9.625H50.1673V8.5ZM57.3303 8.5V11.245C57.3303 11.415 57.3553 11.535 57.4053 11.605C57.4553 11.665 57.5853 11.695 57.7953 11.695H58.6353V12.82H56.7153C55.6253 12.82 55.0803 12.285 55.0803 11.215V10.165C55.0803 9.505 55.2453 9.065 55.5753 8.845C55.9153 8.615 56.5003 8.5 57.3303 8.5ZM57.3603 13.63V14.425C57.3603 14.595 57.3853 14.715 57.4353 14.785C57.4853 14.845 57.6153 14.875 57.8253 14.875H58.6353V16H56.7453C55.6553 16 55.1103 15.465 55.1103 14.395V13.945C55.1103 13.795 55.1253 13.71 55.1553 13.69C55.1953 13.67 55.2203 13.66 55.2303 13.66C55.2403 13.65 55.2653 13.645 55.3053 13.645C55.3553 13.635 55.3853 13.63 55.3953 13.63C56.0553 13.63 56.7103 13.63 57.3603 13.63ZM59.0853 11.695H59.7003C60.7903 11.695 61.3353 12.23 61.3353 13.3V14.335C61.3353 14.995 61.1653 15.44 60.8253 15.67C60.4953 15.89 59.9153 16 59.0853 16V11.695ZM57.7803 8.5H59.6703C60.7603 8.5 61.3053 9.035 61.3053 10.105V10.885C60.6353 10.885 60.1253 10.885 59.7753 10.885C59.4253 10.885 59.2453 10.885 59.2353 10.885C59.2253 10.875 59.2053 10.87 59.1753 10.87C59.1553 10.86 59.1403 10.85 59.1303 10.84C59.1203 10.83 59.1103 10.82 59.1003 10.81C59.0903 10.79 59.0853 10.77 59.0853 10.75C59.0653 10.67 59.0553 10.61 59.0553 10.57V10.075C59.0553 9.905 59.0303 9.79 58.9803 9.73C58.9303 9.66 58.8003 9.625 58.5903 9.625H57.7803V8.5ZM62.8778 8.515H63.7928C64.2328 8.515 64.5628 8.625 64.7828 8.845C65.0128 9.055 65.1278 9.33 65.1278 9.67V16H63.4178C63.2578 16 63.1278 15.945 63.0278 15.835C62.9278 15.725 62.8778 15.58 62.8778 15.4V8.515ZM62.9828 5.32C63.0928 5.21 63.4128 5.155 63.9428 5.155C64.4728 5.155 64.7928 5.21 64.9028 5.32C65.0128 5.42 65.0678 5.72 65.0678 6.22C65.0678 6.72 65.0078 7.025 64.8878 7.135C64.7778 7.245 64.4628 7.3 63.9428 7.3C63.4228 7.3 63.1028 7.245 62.9828 7.135C62.8728 7.025 62.8178 6.72 62.8178 6.22C62.8178 5.72 62.8728 5.42 62.9828 5.32ZM70.4925 9.625H69.6825C69.4225 9.625 69.2525 9.66 69.1725 9.73C69.1025 9.8 69.0675 9.915 69.0675 10.075V14.44C69.0675 14.59 69.1025 14.7 69.1725 14.77C69.2525 14.84 69.4225 14.875 69.6825 14.875H70.4925V16H69.0375C68.6575 16 68.3475 15.985 68.1075 15.955C67.8675 15.915 67.6575 15.835 67.4775 15.715C67.2975 15.595 67.1625 15.465 67.0725 15.325C66.9825 15.175 66.9075 14.94 66.8475 14.62C66.7775 14.17 66.7425 13.54 66.7425 12.73C66.7425 11.92 66.7475 11.375 66.7575 11.095C66.7675 10.805 66.7825 10.5 66.8025 10.18C66.8325 9.86 66.8775 9.625 66.9375 9.475C67.0075 9.325 67.0925 9.175 67.1925 9.025C67.3025 8.865 67.4425 8.755 67.6125 8.695C67.9825 8.565 68.4575 8.5 69.0375 8.5H70.4925V9.625ZM69.2175 16.96V17.755C69.2175 17.925 69.2425 18.04 69.2925 18.1C69.3425 18.17 69.4725 18.205 69.6825 18.205H70.4925V19.33H68.6025C67.5125 19.33 66.9675 18.795 66.9675 17.725V17.275C66.9675 17.125 66.9825 17.04 67.0125 17.02C67.0525 17 67.0775 16.985 67.0875 16.975C67.0975 16.975 67.1225 16.97 67.1625 16.96C67.2125 16.96 67.2475 16.96 67.2675 16.96C67.9175 16.96 68.5675 16.96 69.2175 16.96ZM70.9425 8.5H71.8575C72.2975 8.5 72.6275 8.61 72.8475 8.83C73.0775 9.04 73.1925 9.315 73.1925 9.655V18.19C73.1925 18.53 73.0775 18.805 72.8475 19.015C72.6275 19.235 72.2975 19.345 71.8575 19.345H70.9425V8.5ZM77.5438 8.5H79.6438C80.7338 8.5 81.2788 9.035 81.2788 10.105V16H79.5688C79.4088 16 79.2788 15.945 79.1788 15.835C79.0788 15.725 79.0288 15.58 79.0288 15.4V10.075C79.0288 9.915 78.9888 9.8 78.9088 9.73C78.8388 9.66 78.6738 9.625 78.4138 9.625H77.5438V8.5ZM74.9188 8.5H75.8338C76.2738 8.5 76.6038 8.61 76.8238 8.83C77.0538 9.04 77.1688 9.315 77.1688 9.655V16H75.4588C75.2988 16 75.1688 15.945 75.0688 15.835C74.9688 15.725 74.9188 15.58 74.9188 15.4V8.5ZM88.8559 16H88.6759C88.2759 16 87.9409 15.97 87.6709 15.91C87.4109 15.85 87.1809 15.73 86.9809 15.55C86.7909 15.36 86.6409 15.15 86.5309 14.92C86.4309 14.69 86.3509 14.345 86.2909 13.885C86.2009 13.195 86.1559 12.27 86.1559 11.11C86.1559 9.94 86.1609 9.115 86.1709 8.635C86.1909 8.155 86.2309 7.69 86.2909 7.24C86.3509 6.78 86.4309 6.44 86.5309 6.22C86.6409 5.99 86.7909 5.785 86.9809 5.605C87.1809 5.415 87.4109 5.295 87.6709 5.245C87.9409 5.185 88.2759 5.155 88.6759 5.155H88.8559V16ZM89.4559 5.155H91.3609C92.0909 5.155 92.6409 5.28 93.0109 5.53C93.3909 5.78 93.5809 6.215 93.5809 6.835V8.185C93.5809 8.395 93.5109 8.5 93.3709 8.5H91.4809C91.3409 8.5 91.2559 8.48 91.2259 8.44C91.1959 8.4 91.1809 8.315 91.1809 8.185V7.015C91.1809 6.855 91.1559 6.745 91.1059 6.685C91.0659 6.615 90.9559 6.58 90.7759 6.58H89.4559V5.155ZM91.4809 12.655H93.3709C93.5109 12.655 93.5809 12.76 93.5809 12.97V14.32C93.5809 14.94 93.3909 15.375 93.0109 15.625C92.6409 15.875 92.0909 16 91.3609 16H89.4559V14.575H90.7759C90.9559 14.575 91.0659 14.545 91.1059 14.485C91.1559 14.415 91.1809 14.3 91.1809 14.14V12.97C91.1809 12.84 91.1959 12.755 91.2259 12.715C91.2559 12.675 91.3409 12.655 91.4809 12.655ZM97.8916 8.5H99.3466C99.7266 8.5 100.037 8.52 100.277 8.56C100.517 8.59 100.727 8.665 100.907 8.785C101.087 8.905 101.222 9.04 101.312 9.19C101.402 9.33 101.472 9.56 101.522 9.88C101.602 10.33 101.642 10.96 101.642 11.77C101.642 12.58 101.637 13.13 101.627 13.42C101.617 13.7 101.597 14 101.567 14.32C101.547 14.64 101.502 14.875 101.432 15.025C101.372 15.175 101.287 15.33 101.177 15.49C101.077 15.64 100.942 15.745 100.772 15.805C100.402 15.935 99.9266 16 99.3466 16H99.3166V10.345C99.3166 10.325 99.3166 10.265 99.3166 10.165C99.3166 10.065 99.3116 9.98 99.3016 9.91C99.2516 9.72 99.0516 9.625 98.7016 9.625H97.8916V8.5ZM97.4416 8.5V14.155C97.4416 14.175 97.4416 14.235 97.4416 14.335C97.4416 14.435 97.4516 14.52 97.4716 14.59C97.5116 14.78 97.7066 14.875 98.0566 14.875H98.8666V16H97.4116C97.0316 16 96.7216 15.985 96.4816 15.955C96.2416 15.915 96.0316 15.835 95.8516 15.715C95.6716 15.595 95.5366 15.465 95.4466 15.325C95.3566 15.175 95.2816 14.94 95.2216 14.62C95.1516 14.17 95.1166 13.54 95.1166 12.73C95.1166 11.92 95.1216 11.375 95.1316 11.095C95.1416 10.805 95.1566 10.5 95.1766 10.18C95.2066 9.86 95.2516 9.625 95.3116 9.475C95.3816 9.325 95.4666 9.175 95.5666 9.025C95.6766 8.865 95.8166 8.755 95.9866 8.695C96.3566 8.565 96.8316 8.5 97.4116 8.5H97.4416ZM109.968 8.5H112.008C113.098 8.5 113.643 9.035 113.643 10.105V16H111.933C111.773 16 111.643 15.945 111.543 15.835C111.443 15.725 111.393 15.58 111.393 15.4V10.075C111.393 9.915 111.353 9.8 111.273 9.73C111.203 9.66 111.038 9.625 110.778 9.625H109.968V8.5ZM103.278 8.5H104.193C104.633 8.5 104.963 8.61 105.183 8.83C105.413 9.04 105.528 9.315 105.528 9.655V16H103.818C103.658 16 103.528 15.945 103.428 15.835C103.328 15.725 103.278 15.58 103.278 15.4V8.5ZM105.903 8.5H107.943C109.033 8.5 109.578 9.035 109.578 10.105V16H107.868C107.708 16 107.578 15.945 107.478 15.835C107.378 15.725 107.328 15.58 107.328 15.4V10.075C107.328 9.915 107.288 9.8 107.208 9.73C107.138 9.66 106.973 9.625 106.713 9.625H105.903V8.5ZM118.034 8.5H119.489C120.479 8.5 121.089 8.67 121.319 9.01C121.429 9.17 121.514 9.325 121.574 9.475C121.644 9.625 121.689 9.86 121.709 10.18C121.759 10.76 121.784 11.405 121.784 12.115C121.784 12.825 121.779 13.34 121.769 13.66C121.759 13.97 121.724 14.29 121.664 14.62C121.614 14.94 121.544 15.175 121.454 15.325C121.364 15.465 121.229 15.595 121.049 15.715C120.869 15.835 120.659 15.915 120.419 15.955C120.179 15.985 119.869 16 119.489 16H118.034V14.875H118.844C119.104 14.875 119.269 14.84 119.339 14.77C119.419 14.7 119.459 14.59 119.459 14.44V10.075C119.459 9.915 119.419 9.8 119.339 9.73C119.269 9.66 119.104 9.625 118.844 9.625H118.034V8.5ZM117.584 19.345H116.669C116.229 19.345 115.894 19.235 115.664 19.015C115.444 18.805 115.334 18.53 115.334 18.19V9.655C115.334 9.315 115.444 9.04 115.664 8.83C115.894 8.61 116.229 8.5 116.669 8.5H117.584V19.345ZM126.615 15.895C126.615 15.965 126.59 16 126.54 16H125.025C124.465 16 124.05 15.87 123.78 15.61C123.52 15.35 123.39 14.925 123.39 14.335V5.17H124.305C124.745 5.17 125.075 5.28 125.295 5.5C125.525 5.71 125.64 5.985 125.64 6.325V14.305C125.64 14.615 125.705 14.79 125.835 14.83C125.905 14.86 126 14.875 126.12 14.875H126.495C126.575 14.875 126.615 14.91 126.615 14.98V15.895ZM129.873 16H129.843C128.853 16 128.243 15.83 128.013 15.49C127.903 15.33 127.813 15.175 127.743 15.025C127.683 14.875 127.643 14.64 127.623 14.32C127.573 13.74 127.548 13.095 127.548 12.385C127.548 11.675 127.553 11.165 127.563 10.855C127.573 10.535 127.603 10.215 127.653 9.895C127.713 9.565 127.788 9.33 127.878 9.19C127.968 9.04 128.103 8.905 128.283 8.785C128.463 8.665 128.673 8.59 128.913 8.56C129.153 8.52 129.463 8.5 129.843 8.5H129.873V16ZM133.863 13.63V14.395C133.863 15.465 133.318 16 132.228 16H130.338V14.875H131.148C131.358 14.875 131.488 14.845 131.538 14.785C131.588 14.715 131.613 14.595 131.613 14.425V13.945C131.613 13.795 131.628 13.71 131.658 13.69C131.698 13.67 131.723 13.66 131.733 13.66C131.743 13.65 131.768 13.645 131.808 13.645C131.858 13.635 131.893 13.63 131.913 13.63C132.563 13.63 133.213 13.63 133.863 13.63ZM130.338 8.5H132.078C132.768 8.5 133.238 8.635 133.488 8.905C133.738 9.175 133.863 9.575 133.863 10.105V11.425C133.863 12.325 133.373 12.775 132.393 12.775H130.188V11.65H130.998C131.238 11.65 131.398 11.62 131.478 11.56C131.568 11.5 131.613 11.385 131.613 11.215V10.075C131.613 9.905 131.588 9.79 131.538 9.73C131.488 9.66 131.358 9.625 131.148 9.625H130.338V8.5ZM139.256 15.88C139.256 15.94 139.226 15.98 139.166 16H138.026C137.296 16 136.766 15.855 136.436 15.565C136.106 15.275 135.941 14.765 135.941 14.035V9.655H135.176C134.926 9.655 134.801 9.505 134.801 9.205V8.5H135.941V5.155H136.856C137.296 5.155 137.626 5.265 137.846 5.485C138.076 5.705 138.191 5.985 138.191 6.325V14.305C138.191 14.675 138.401 14.86 138.821 14.86H139.136C139.216 14.86 139.256 14.895 139.256 14.965V15.88ZM139.721 8.5V9.205C139.721 9.505 139.596 9.655 139.346 9.655H138.566V8.5H139.721ZM143.375 8.5H144.83C145.21 8.5 145.52 8.52 145.76 8.56C146 8.59 146.21 8.665 146.39 8.785C146.57 8.905 146.705 9.04 146.795 9.19C146.885 9.33 146.955 9.56 147.005 9.88C147.085 10.33 147.125 10.96 147.125 11.77C147.125 12.58 147.12 13.13 147.11 13.42C147.1 13.7 147.08 14 147.05 14.32C147.03 14.64 146.985 14.875 146.915 15.025C146.855 15.175 146.77 15.33 146.66 15.49C146.56 15.64 146.425 15.745 146.255 15.805C145.885 15.935 145.41 16 144.83 16H144.8V10.345C144.8 10.325 144.8 10.265 144.8 10.165C144.8 10.065 144.795 9.98 144.785 9.91C144.735 9.72 144.535 9.625 144.185 9.625H143.375V8.5ZM142.925 8.5V14.155C142.925 14.175 142.925 14.235 142.925 14.335C142.925 14.435 142.935 14.52 142.955 14.59C142.995 14.78 143.19 14.875 143.54 14.875H144.35V16H142.895C142.515 16 142.205 15.985 141.965 15.955C141.725 15.915 141.515 15.835 141.335 15.715C141.155 15.595 141.02 15.465 140.93 15.325C140.84 15.175 140.765 14.94 140.705 14.62C140.635 14.17 140.6 13.54 140.6 12.73C140.6 11.92 140.605 11.375 140.615 11.095C140.625 10.805 140.64 10.5 140.66 10.18C140.69 9.86 140.735 9.625 140.795 9.475C140.865 9.325 140.95 9.175 141.05 9.025C141.16 8.865 141.3 8.755 141.47 8.695C141.84 8.565 142.315 8.5 142.895 8.5H142.925Z" fill="white"/>
</g>
<defs>
<clipPath id="clip0_1_2">
<rect width="152" height="23" fill="white"/>
</clipPath>
</defs>
</svg>
