<svg width="152" height="23" viewBox="0 0 152 23" fill="none" xmlns="http://www.w3.org/2000/svg">
<path d="M7.45 6.155V15.14C7.45 15.3 7.47 15.415 7.51 15.485C7.56 15.545 7.675 15.575 7.855 15.575H9.475V17H7.27C6.54 17 5.985 16.875 5.605 16.625C5.235 16.375 5.05 15.94 5.05 15.32V7.01C5.05 6.66 5.1 6.43 5.2 6.32C5.31 6.21 5.535 6.155 5.875 6.155H7.45ZM9.925 9.5H11.485C11.785 9.5 12 9.585 12.13 9.755C12.26 9.915 12.325 10.18 12.325 10.55V15.14C12.325 15.3 12.345 15.415 12.385 15.485C12.435 15.545 12.55 15.575 12.73 15.575H14.35V17H10.465C10.305 17 10.175 16.945 10.075 16.835C9.975 16.725 9.925 16.58 9.925 16.4V9.5ZM14.95 6.155H16.525C16.865 6.155 17.09 6.21 17.2 6.32C17.31 6.43 17.365 6.66 17.365 7.01V16.4C17.365 16.58 17.31 16.725 17.2 16.835C17.1 16.945 16.97 17 16.81 17H14.95V6.155ZM21.9687 9.5H23.4237C23.8037 9.5 24.1137 9.52 24.3537 9.56C24.5937 9.59 24.8037 9.665 24.9837 9.785C25.1637 9.905 25.2987 10.04 25.3887 10.19C25.4787 10.33 25.5487 10.56 25.5987 10.88C25.6787 11.33 25.7187 11.96 25.7187 12.77C25.7187 13.58 25.7137 14.13 25.7037 14.42C25.6937 14.7 25.6737 15 25.6437 15.32C25.6237 15.64 25.5787 15.875 25.5087 16.025C25.4487 16.175 25.3637 16.33 25.2537 16.49C25.1537 16.64 25.0187 16.745 24.8487 16.805C24.4787 16.935 24.0037 17 23.4237 17H23.3937V11.345C23.3937 11.325 23.3937 11.265 23.3937 11.165C23.3937 11.065 23.3887 10.98 23.3787 10.91C23.3287 10.72 23.1287 10.625 22.7787 10.625H21.9687V9.5ZM21.5187 9.5V15.155C21.5187 15.175 21.5187 15.235 21.5187 15.335C21.5187 15.435 21.5287 15.52 21.5487 15.59C21.5887 15.78 21.7837 15.875 22.1337 15.875H22.9437V17H21.4887C21.1087 17 20.7987 16.985 20.5587 16.955C20.3187 16.915 20.1087 16.835 19.9287 16.715C19.7487 16.595 19.6137 16.465 19.5237 16.325C19.4337 16.175 19.3587 15.94 19.2987 15.62C19.2287 15.17 19.1937 14.54 19.1937 13.73C19.1937 12.92 19.1987 12.375 19.2087 12.095C19.2187 11.805 19.2337 11.5 19.2537 11.18C19.2837 10.86 19.3287 10.625 19.3887 10.475C19.4587 10.325 19.5437 10.175 19.6437 10.025C19.7537 9.865 19.8937 9.755 20.0637 9.695C20.4337 9.565 20.9087 9.5 21.4887 9.5H21.5187ZM28.9604 9.5H30.7604C30.8204 9.5 30.8504 9.535 30.8504 9.605V10.52C30.8504 10.59 30.8104 10.625 30.7304 10.625H30.0554C29.8154 10.625 29.6754 10.67 29.6354 10.76C29.5954 10.89 29.5754 11.035 29.5754 11.195V15.845C29.5754 16.185 29.4604 16.465 29.2304 16.685C29.0104 16.895 28.6804 17 28.2404 17H27.3254V11.165C27.3254 10.575 27.4554 10.15 27.7154 9.89C27.9854 9.63 28.4004 9.5 28.9604 9.5ZM35.6439 10.625H34.8339C34.5739 10.625 34.4039 10.66 34.3239 10.73C34.2539 10.8 34.2189 10.915 34.2189 11.075V15.44C34.2189 15.59 34.2539 15.7 34.3239 15.77C34.4039 15.84 34.5739 15.875 34.8339 15.875H35.6439V17H34.1889C33.1989 17 32.5889 16.83 32.3589 16.49C32.2489 16.33 32.1589 16.175 32.0889 16.025C32.0289 15.875 31.9889 15.64 31.9689 15.32C31.9189 14.74 31.8939 14.095 31.8939 13.385C31.8939 12.675 31.8989 12.165 31.9089 11.855C31.9189 11.535 31.9489 11.215 31.9989 10.895C32.0589 10.565 32.1339 10.33 32.2239 10.19C32.3139 10.04 32.4489 9.905 32.6289 9.785C32.8089 9.665 33.0189 9.59 33.2589 9.56C33.4989 9.52 33.8089 9.5 34.1889 9.5H35.6439V10.625ZM36.0939 6.155H37.0089C37.4489 6.155 37.7789 6.265 37.9989 6.485C38.2289 6.695 38.3439 6.97 38.3439 7.31V15.845C38.3439 16.185 38.2289 16.465 37.9989 16.685C37.7789 16.895 37.4489 17 37.0089 17H36.0939V6.155ZM42.6652 17H41.0902C40.7502 17 40.5252 16.945 40.4152 16.835C40.3152 16.725 40.2652 16.495 40.2652 16.145V6.755C40.2652 6.575 40.3152 6.43 40.4152 6.32C40.5152 6.21 40.6452 6.155 40.8052 6.155H42.6652V17ZM43.2652 6.155H45.1702C46.1202 6.155 46.7502 6.38 47.0602 6.83C47.3802 7.27 47.5402 8.16 47.5402 9.5C47.5402 10.39 47.4402 11.085 47.2402 11.585C47.0502 12.085 46.7952 12.42 46.4752 12.59C46.1552 12.75 45.7202 12.83 45.1702 12.83H43.2652V11.405H44.3752C44.6352 11.405 44.8002 11.37 44.8702 11.3C44.9502 11.23 44.9902 11.12 44.9902 10.97V8.03C44.9902 7.87 44.9502 7.755 44.8702 7.685C44.8002 7.615 44.6352 7.58 44.3752 7.58H43.2652V6.155ZM50.5082 9.5H52.3082C52.3682 9.5 52.3982 9.535 52.3982 9.605V10.52C52.3982 10.59 52.3582 10.625 52.2782 10.625H51.6032C51.3632 10.625 51.2232 10.67 51.1832 10.76C51.1432 10.89 51.1232 11.035 51.1232 11.195V15.845C51.1232 16.185 51.0082 16.465 50.7782 16.685C50.5582 16.895 50.2282 17 49.7882 17H48.8732V11.165C48.8732 10.575 49.0032 10.15 49.2632 9.89C49.5332 9.63 49.9482 9.5 50.5082 9.5ZM55.7668 17H55.7368C54.7468 17 54.1368 16.83 53.9068 16.49C53.7968 16.33 53.7068 16.175 53.6368 16.025C53.5768 15.875 53.5368 15.64 53.5168 15.32C53.4668 14.74 53.4418 14.095 53.4418 13.385C53.4418 12.675 53.4468 12.165 53.4568 11.855C53.4668 11.535 53.4968 11.215 53.5468 10.895C53.6068 10.565 53.6818 10.33 53.7718 10.19C53.8618 10.04 53.9968 9.905 54.1768 9.785C54.3568 9.665 54.5668 9.59 54.8068 9.56C55.0468 9.52 55.3568 9.5 55.7368 9.5H55.7668V17ZM59.7568 14.63V15.395C59.7568 16.465 59.2118 17 58.1218 17H56.2318V15.875H57.0418C57.2518 15.875 57.3818 15.845 57.4318 15.785C57.4818 15.715 57.5068 15.595 57.5068 15.425V14.945C57.5068 14.795 57.5218 14.71 57.5518 14.69C57.5918 14.67 57.6168 14.66 57.6268 14.66C57.6368 14.65 57.6618 14.645 57.7018 14.645C57.7518 14.635 57.7868 14.63 57.8068 14.63C58.4568 14.63 59.1068 14.63 59.7568 14.63ZM56.2318 9.5H57.9718C58.6618 9.5 59.1318 9.635 59.3818 9.905C59.6318 10.175 59.7568 10.575 59.7568 11.105V12.425C59.7568 13.325 59.2668 13.775 58.2868 13.775H56.0818V12.65H56.8918C57.1318 12.65 57.2918 12.62 57.3718 12.56C57.4618 12.5 57.5068 12.385 57.5068 12.215V11.075C57.5068 10.905 57.4818 10.79 57.4318 10.73C57.3818 10.66 57.2518 10.625 57.0418 10.625H56.2318V9.5ZM63.3947 9.5V12.245C63.3947 12.415 63.4197 12.535 63.4697 12.605C63.5197 12.665 63.6497 12.695 63.8597 12.695H64.6997V13.82H62.7797C61.6897 13.82 61.1447 13.285 61.1447 12.215V11.165C61.1447 10.505 61.3097 10.065 61.6397 9.845C61.9797 9.615 62.5647 9.5 63.3947 9.5ZM63.4247 14.63V15.425C63.4247 15.595 63.4497 15.715 63.4997 15.785C63.5497 15.845 63.6797 15.875 63.8897 15.875H64.6997V17H62.8097C61.7197 17 61.1747 16.465 61.1747 15.395V14.945C61.1747 14.795 61.1897 14.71 61.2197 14.69C61.2597 14.67 61.2847 14.66 61.2947 14.66C61.3047 14.65 61.3297 14.645 61.3697 14.645C61.4197 14.635 61.4497 14.63 61.4597 14.63C62.1197 14.63 62.7747 14.63 63.4247 14.63ZM65.1497 12.695H65.7647C66.8547 12.695 67.3997 13.23 67.3997 14.3V15.335C67.3997 15.995 67.2297 16.44 66.8897 16.67C66.5597 16.89 65.9797 17 65.1497 17V12.695ZM63.8447 9.5H65.7347C66.8247 9.5 67.3697 10.035 67.3697 11.105V11.885C66.6997 11.885 66.1897 11.885 65.8397 11.885C65.4897 11.885 65.3097 11.885 65.2997 11.885C65.2897 11.875 65.2697 11.87 65.2397 11.87C65.2197 11.86 65.2047 11.85 65.1947 11.84C65.1847 11.83 65.1747 11.82 65.1647 11.81C65.1547 11.79 65.1497 11.77 65.1497 11.75C65.1297 11.67 65.1197 11.61 65.1197 11.57V11.075C65.1197 10.905 65.0947 10.79 65.0447 10.73C64.9947 10.66 64.8647 10.625 64.6547 10.625H63.8447V9.5ZM70.9973 9.5V12.245C70.9973 12.415 71.0223 12.535 71.0723 12.605C71.1223 12.665 71.2523 12.695 71.4623 12.695H72.3023V13.82H70.3823C69.2923 13.82 68.7473 13.285 68.7473 12.215V11.165C68.7473 10.505 68.9123 10.065 69.2423 9.845C69.5823 9.615 70.1673 9.5 70.9973 9.5ZM71.0273 14.63V15.425C71.0273 15.595 71.0523 15.715 71.1023 15.785C71.1523 15.845 71.2823 15.875 71.4923 15.875H72.3023V17H70.4123C69.3223 17 68.7773 16.465 68.7773 15.395V14.945C68.7773 14.795 68.7923 14.71 68.8223 14.69C68.8623 14.67 68.8873 14.66 68.8973 14.66C68.9073 14.65 68.9323 14.645 68.9723 14.645C69.0223 14.635 69.0523 14.63 69.0623 14.63C69.7223 14.63 70.3773 14.63 71.0273 14.63ZM72.7523 12.695H73.3673C74.4573 12.695 75.0023 13.23 75.0023 14.3V15.335C75.0023 15.995 74.8323 16.44 74.4923 16.67C74.1623 16.89 73.5823 17 72.7523 17V12.695ZM71.4473 9.5H73.3373C74.4273 9.5 74.9723 10.035 74.9723 11.105V11.885C74.3023 11.885 73.7923 11.885 73.4423 11.885C73.0923 11.885 72.9123 11.885 72.9023 11.885C72.8923 11.875 72.8723 11.87 72.8423 11.87C72.8223 11.86 72.8073 11.85 72.7973 11.84C72.7873 11.83 72.7773 11.82 72.7673 11.81C72.7573 11.79 72.7523 11.77 72.7523 11.75C72.7323 11.67 72.7223 11.61 72.7223 11.57V11.075C72.7223 10.905 72.6973 10.79 72.6473 10.73C72.5973 10.66 72.4673 10.625 72.2573 10.625H71.4473V9.5ZM81.8556 17H81.8256C80.8356 17 80.2256 16.83 79.9956 16.49C79.8856 16.33 79.7956 16.175 79.7256 16.025C79.6656 15.875 79.6256 15.64 79.6056 15.32C79.5556 14.74 79.5306 14.095 79.5306 13.385C79.5306 12.675 79.5356 12.165 79.5456 11.855C79.5556 11.535 79.5856 11.215 79.6356 10.895C79.6956 10.565 79.7706 10.33 79.8606 10.19C79.9506 10.04 80.0856 9.905 80.2656 9.785C80.4456 9.665 80.6556 9.59 80.8956 9.56C81.1356 9.52 81.4456 9.5 81.8256 9.5H81.8556V17ZM83.5956 14.63C84.2656 14.63 84.7756 14.63 85.1256 14.63C85.4756 14.63 85.6556 14.635 85.6656 14.645C85.6756 14.645 85.6906 14.65 85.7106 14.66C85.7406 14.66 85.7606 14.665 85.7706 14.675C85.7806 14.685 85.7906 14.7 85.8006 14.72C85.8106 14.73 85.8156 14.75 85.8156 14.78C85.8356 14.85 85.8456 14.905 85.8456 14.945V15.395C85.8456 16.465 85.3006 17 84.2106 17H82.3206V15.875H83.1306C83.3406 15.875 83.4706 15.845 83.5206 15.785C83.5706 15.715 83.5956 15.595 83.5956 15.425V14.63ZM82.3206 9.5H84.2106C85.3006 9.5 85.8456 10.035 85.8456 11.105V12.125C85.1756 12.125 84.6656 12.125 84.3156 12.125C83.9656 12.125 83.7856 12.125 83.7756 12.125C83.7656 12.115 83.7456 12.11 83.7156 12.11C83.6956 12.1 83.6806 12.09 83.6706 12.08C83.6606 12.07 83.6506 12.06 83.6406 12.05C83.6306 12.03 83.6256 12.01 83.6256 11.99C83.6056 11.91 83.5956 11.85 83.5956 11.81V11.075C83.5956 10.905 83.5706 10.79 83.5206 10.73C83.4706 10.66 83.3406 10.625 83.1306 10.625H82.3206V9.5ZM90.0254 9.5H91.4804C91.8604 9.5 92.1704 9.52 92.4104 9.56C92.6504 9.59 92.8604 9.665 93.0404 9.785C93.2204 9.905 93.3554 10.04 93.4454 10.19C93.5354 10.33 93.6054 10.56 93.6554 10.88C93.7354 11.33 93.7754 11.96 93.7754 12.77C93.7754 13.58 93.7704 14.13 93.7604 14.42C93.7504 14.7 93.7304 15 93.7004 15.32C93.6804 15.64 93.6354 15.875 93.5654 16.025C93.5054 16.175 93.4204 16.33 93.3104 16.49C93.2104 16.64 93.0754 16.745 92.9054 16.805C92.5354 16.935 92.0604 17 91.4804 17H91.4504V11.345C91.4504 11.325 91.4504 11.265 91.4504 11.165C91.4504 11.065 91.4454 10.98 91.4354 10.91C91.3854 10.72 91.1854 10.625 90.8354 10.625H90.0254V9.5ZM89.5754 9.5V15.155C89.5754 15.175 89.5754 15.235 89.5754 15.335C89.5754 15.435 89.5854 15.52 89.6054 15.59C89.6454 15.78 89.8404 15.875 90.1904 15.875H91.0004V17H89.5454C89.1654 17 88.8554 16.985 88.6154 16.955C88.3754 16.915 88.1654 16.835 87.9854 16.715C87.8054 16.595 87.6704 16.465 87.5804 16.325C87.4904 16.175 87.4154 15.94 87.3554 15.62C87.2854 15.17 87.2504 14.54 87.2504 13.73C87.2504 12.92 87.2554 12.375 87.2654 12.095C87.2754 11.805 87.2904 11.5 87.3104 11.18C87.3404 10.86 87.3854 10.625 87.4454 10.475C87.5154 10.325 87.6004 10.175 87.7004 10.025C87.8104 9.865 87.9504 9.755 88.1204 9.695C88.4904 9.565 88.9654 9.5 89.5454 9.5H89.5754ZM102.102 9.5H104.142C105.232 9.5 105.777 10.035 105.777 11.105V17H104.067C103.907 17 103.777 16.945 103.677 16.835C103.577 16.725 103.527 16.58 103.527 16.4V11.075C103.527 10.915 103.487 10.8 103.407 10.73C103.337 10.66 103.172 10.625 102.912 10.625H102.102V9.5ZM95.412 9.5H96.327C96.767 9.5 97.097 9.61 97.317 9.83C97.547 10.04 97.662 10.315 97.662 10.655V17H95.952C95.792 17 95.662 16.945 95.562 16.835C95.462 16.725 95.412 16.58 95.412 16.4V9.5ZM98.037 9.5H100.077C101.167 9.5 101.712 10.035 101.712 11.105V17H100.002C99.842 17 99.712 16.945 99.612 16.835C99.512 16.725 99.462 16.58 99.462 16.4V11.075C99.462 10.915 99.422 10.8 99.342 10.73C99.272 10.66 99.107 10.625 98.847 10.625H98.037V9.5ZM110.152 9.5H111.607C111.987 9.5 112.297 9.52 112.537 9.56C112.777 9.59 112.987 9.665 113.167 9.785C113.347 9.905 113.482 10.04 113.572 10.19C113.662 10.33 113.732 10.56 113.782 10.88C113.862 11.33 113.902 11.96 113.902 12.77C113.902 13.58 113.897 14.13 113.887 14.42C113.877 14.7 113.857 15 113.827 15.32C113.807 15.64 113.762 15.875 113.692 16.025C113.632 16.175 113.547 16.33 113.437 16.49C113.337 16.64 113.202 16.745 113.032 16.805C112.662 16.935 112.187 17 111.607 17H111.577V11.345C111.577 11.325 111.577 11.265 111.577 11.165C111.577 11.065 111.572 10.98 111.562 10.91C111.512 10.72 111.312 10.625 110.962 10.625H110.152V9.5ZM109.702 9.5V15.155C109.702 15.175 109.702 15.235 109.702 15.335C109.702 15.435 109.712 15.52 109.732 15.59C109.772 15.78 109.967 15.875 110.317 15.875H111.127V17H109.672C109.292 17 108.982 16.985 108.742 16.955C108.502 16.915 108.292 16.835 108.112 16.715C107.932 16.595 107.797 16.465 107.707 16.325C107.617 16.175 107.542 15.94 107.482 15.62C107.412 15.17 107.377 14.54 107.377 13.73C107.377 12.92 107.382 12.375 107.392 12.095C107.402 11.805 107.417 11.5 107.437 11.18C107.467 10.86 107.512 10.625 107.572 10.475C107.642 10.325 107.727 10.175 107.827 10.025C107.937 9.865 108.077 9.755 108.247 9.695C108.617 9.565 109.092 9.5 109.672 9.5H109.702ZM121.405 17H121.225C120.825 17 120.49 16.97 120.22 16.91C119.96 16.85 119.73 16.73 119.53 16.55C119.34 16.36 119.19 16.15 119.08 15.92C118.98 15.69 118.9 15.345 118.84 14.885C118.75 14.195 118.705 13.27 118.705 12.11C118.705 10.94 118.71 10.115 118.72 9.635C118.74 9.155 118.78 8.69 118.84 8.24C118.9 7.78 118.98 7.44 119.08 7.22C119.19 6.99 119.34 6.785 119.53 6.605C119.73 6.415 119.96 6.295 120.22 6.245C120.49 6.185 120.825 6.155 121.225 6.155H121.405V17ZM122.005 6.155H123.91C124.64 6.155 125.19 6.28 125.56 6.53C125.94 6.78 126.13 7.215 126.13 7.835V9.185C126.13 9.395 126.06 9.5 125.92 9.5H124.03C123.89 9.5 123.805 9.48 123.775 9.44C123.745 9.4 123.73 9.315 123.73 9.185V8.015C123.73 7.855 123.705 7.745 123.655 7.685C123.615 7.615 123.505 7.58 123.325 7.58H122.005V6.155ZM124.03 13.655H125.92C126.06 13.655 126.13 13.76 126.13 13.97V15.32C126.13 15.94 125.94 16.375 125.56 16.625C125.19 16.875 124.64 17 123.91 17H122.005V15.575H123.325C123.505 15.575 123.615 15.545 123.655 15.485C123.705 15.415 123.73 15.3 123.73 15.14V13.97C123.73 13.84 123.745 13.755 123.775 13.715C123.805 13.675 123.89 13.655 124.03 13.655ZM135.81 6.155H138.06C138.79 6.155 139.34 6.28 139.71 6.53C140.09 6.78 140.28 7.215 140.28 7.835V16.145C140.28 16.495 140.225 16.725 140.115 16.835C140.015 16.945 139.795 17 139.455 17H137.88V8.015C137.88 7.855 137.855 7.745 137.805 7.685C137.765 7.615 137.655 7.58 137.475 7.58H135.81V6.155ZM130.365 17H128.79C128.45 17 128.225 16.945 128.115 16.835C128.015 16.725 127.965 16.495 127.965 16.145V6.755C127.965 6.575 128.015 6.43 128.115 6.32C128.215 6.21 128.345 6.155 128.505 6.155H130.365V17ZM130.98 6.155H134.82C134.98 6.155 135.11 6.21 135.21 6.32C135.31 6.43 135.36 6.575 135.36 6.755V15.905H133.8C133.5 15.905 133.285 15.825 133.155 15.665C133.025 15.495 132.96 15.225 132.96 14.855V8.015C132.96 7.855 132.935 7.745 132.885 7.685C132.845 7.615 132.735 7.58 132.555 7.58H130.98V6.155ZM144.869 6.17V10.475C144.869 10.635 144.904 10.75 144.974 10.82C145.054 10.89 145.224 10.925 145.484 10.925H146.594V12.35H144.689C144.119 12.35 143.659 12.29 143.309 12.17C142.969 12.05 142.714 11.84 142.544 11.54C142.384 11.23 142.279 10.9 142.229 10.55C142.189 10.2 142.169 9.73 142.169 9.14C142.169 8.54 142.189 8.085 142.229 7.775C142.279 7.465 142.384 7.175 142.544 6.905C142.714 6.635 142.969 6.445 143.309 6.335C143.659 6.225 144.119 6.17 144.689 6.17H144.869ZM147.194 10.925H147.374C147.804 10.925 148.134 10.935 148.364 10.955C148.604 10.965 148.834 11.01 149.054 11.09C149.274 11.16 149.424 11.245 149.504 11.345C149.594 11.445 149.674 11.62 149.744 11.87C149.824 12.11 149.869 12.37 149.879 12.65C149.889 12.93 149.894 13.33 149.894 13.85C149.894 14.37 149.889 14.785 149.879 15.095C149.869 15.395 149.824 15.685 149.744 15.965C149.674 16.235 149.594 16.425 149.504 16.535C149.424 16.645 149.274 16.745 149.054 16.835C148.834 16.915 148.604 16.965 148.364 16.985C148.134 16.995 147.804 17 147.374 17H147.194V10.925ZM142.379 13.655H144.269C144.409 13.655 144.494 13.675 144.524 13.715C144.554 13.755 144.569 13.84 144.569 13.97V15.14C144.569 15.3 144.589 15.415 144.629 15.485C144.679 15.545 144.794 15.575 144.974 15.575H146.594V17H144.389C143.659 17 143.104 16.875 142.724 16.625C142.354 16.375 142.169 15.94 142.169 15.32V13.97C142.169 13.76 142.239 13.655 142.379 13.655ZM145.469 6.155H147.374C148.104 6.155 148.654 6.28 149.024 6.53C149.404 6.78 149.594 7.215 149.594 7.835V9.185C149.594 9.395 149.524 9.5 149.384 9.5H147.494C147.354 9.5 147.269 9.48 147.239 9.44C147.209 9.4 147.194 9.315 147.194 9.185V8.015C147.194 7.855 147.169 7.745 147.119 7.685C147.079 7.615 146.969 7.58 146.789 7.58H145.469V6.155Z" fill="white"/>
</svg>
