<?xml version="1.0" encoding="UTF-8" standalone="no"?>
<svg
   xmlns:dc="http://purl.org/dc/elements/1.1/"
   xmlns:cc="http://creativecommons.org/ns#"
   xmlns:rdf="http://www.w3.org/1999/02/22-rdf-syntax-ns#"
   xmlns:svg="http://www.w3.org/2000/svg"
   xmlns="http://www.w3.org/2000/svg"
   xmlns:sodipodi="http://sodipodi.sourceforge.net/DTD/sodipodi-0.dtd"
   xmlns:inkscape="http://www.inkscape.org/namespaces/inkscape"
   width="17.298"
   height="17.401"
   viewBox="0 0 17.298 17.401"
   version="1.1"
   id="svg7"
   sodipodi:docname="wpp-blue.svg"
   inkscape:version="0.92.5 (2060ec1f9f, 2020-04-08)">
  <metadata
     id="metadata11">
    <rdf:RDF>
      <cc:Work
         rdf:about="">
        <dc:format>image/svg+xml</dc:format>
        <dc:type
           rdf:resource="http://purl.org/dc/dcmitype/StillImage" />
        <dc:title></dc:title>
      </cc:Work>
    </rdf:RDF>
  </metadata>
  <sodipodi:namedview
     pagecolor="#ffffff"
     bordercolor="#666666"
     borderopacity="1"
     objecttolerance="10"
     gridtolerance="10"
     guidetolerance="10"
     inkscape:pageopacity="0"
     inkscape:pageshadow="2"
     inkscape:window-width="1366"
     inkscape:window-height="740"
     id="namedview9"
     showgrid="false"
     inkscape:zoom="13.56244"
     inkscape:cx="8.6490002"
     inkscape:cy="8.7004995"
     inkscape:window-x="0"
     inkscape:window-y="0"
     inkscape:window-maximized="1"
     inkscape:current-layer="svg7" />
  <defs
     id="defs4">
    <style
       id="style2">
      .cls-1 {
        fill: #f1f0f5;
      }
    </style>
  </defs>
  <path
     id="path4"
     class="cls-1"
     d="M14.69,12.427c-.174-.087-1.3-.608-1.478-.7a.409.409,0,0,0-.522.087c-.174.174-.522.7-.7.869-.087.174-.261.174-.435.087a7.106,7.106,0,0,1-1.738-1.043,10.005,10.005,0,0,1-1.217-1.478.382.382,0,0,1,.087-.435c.087-.087.174-.261.348-.348a.659.659,0,0,0,.174-.348.261.261,0,0,0,0-.348,15.451,15.451,0,0,1-.7-1.565C8.432,6.6,8.258,6.6,8.084,6.6H7.65a.992.992,0,0,0-.522.261A2.5,2.5,0,0,0,6.346,8.69a4.553,4.553,0,0,0,.869,2.26,9.267,9.267,0,0,0,3.651,3.216,6.812,6.812,0,0,0,1.217.435,2.482,2.482,0,0,0,1.391.087,2.252,2.252,0,0,0,1.478-1.043,1.453,1.453,0,0,0,.087-1.043l-.348-.174m2.173-7.91A8.664,8.664,0,0,0,3.217,14.948L2,19.381l4.607-1.217a8.651,8.651,0,0,0,4.085,1.043h0a8.569,8.569,0,0,0,8.6-8.6,8.466,8.466,0,0,0-2.434-6.084M14.516,16.686a7.294,7.294,0,0,1-3.824,1.13h0a7.622,7.622,0,0,1-3.651-.956l-.261-.174-2.694.7.7-2.608-.174-.261a7.3,7.3,0,0,1,2.347-10,7.071,7.071,0,0,1,9.822,2.26,7.172,7.172,0,0,1-2.26,9.909"
     transform="translate(-2 -1.979)"
     style="fill:#1c1c38;fill-opacity:1" />
</svg>
