<?xml version="1.0" encoding="UTF-8" standalone="no"?>
<svg
   xmlns:dc="http://purl.org/dc/elements/1.1/"
   xmlns:cc="http://creativecommons.org/ns#"
   xmlns:rdf="http://www.w3.org/1999/02/22-rdf-syntax-ns#"
   xmlns:svg="http://www.w3.org/2000/svg"
   xmlns="http://www.w3.org/2000/svg"
   xmlns:sodipodi="http://sodipodi.sourceforge.net/DTD/sodipodi-0.dtd"
   xmlns:inkscape="http://www.inkscape.org/namespaces/inkscape"
   width="21.534"
   height="16.067"
   viewBox="0 0 21.534 16.067"
   version="1.1"
   id="svg9"
   sodipodi:docname="youtube-blue.svg"
   inkscape:version="0.92.5 (2060ec1f9f, 2020-04-08)">
  <metadata
     id="metadata13">
    <rdf:RDF>
      <cc:Work
         rdf:about="">
        <dc:format>image/svg+xml</dc:format>
        <dc:type
           rdf:resource="http://purl.org/dc/dcmitype/StillImage" />
        <dc:title></dc:title>
      </cc:Work>
    </rdf:RDF>
  </metadata>
  <sodipodi:namedview
     pagecolor="#ffffff"
     bordercolor="#666666"
     borderopacity="1"
     objecttolerance="10"
     gridtolerance="10"
     guidetolerance="10"
     inkscape:pageopacity="0"
     inkscape:pageshadow="2"
     inkscape:window-width="1366"
     inkscape:window-height="740"
     id="namedview11"
     showgrid="false"
     inkscape:zoom="14.688492"
     inkscape:cx="-0.46628331"
     inkscape:cy="8.0334997"
     inkscape:window-x="0"
     inkscape:window-y="0"
     inkscape:window-maximized="1"
     inkscape:current-layer="ic-social-youtube" />
  <defs
     id="defs4">
    <style
       id="style2">
      .cls-1 {
        fill: none;
        stroke: #f1f0f5;
        stroke-linecap: round;
        stroke-linejoin: round;
        stroke-width: 1.5px;
      }
    </style>
  </defs>
  <g
     id="ic-social-youtube"
     transform="translate(-1.233 -3.966)">
    <path
       id="Caminho_1416"
       data-name="Caminho 1416"
       class="cls-1"
       d="M12,19.27a42.87,42.87,0,0,0,7.36-.45,2.67,2.67,0,0,0,1.82-1.46A13.57,13.57,0,0,0,22,12a13.57,13.57,0,0,0-.82-5.36,2.93,2.93,0,0,0-1.82-1.46A42.87,42.87,0,0,0,12,4.73a42.87,42.87,0,0,0-7.36.45A2.67,2.67,0,0,0,2.82,6.64,13.57,13.57,0,0,0,2,12a13.57,13.57,0,0,0,.82,5.36,2.93,2.93,0,0,0,1.82,1.46,42.87,42.87,0,0,0,7.36.45Z"
       style="stroke:#1c1c38;stroke-opacity:1" />
    <path
       id="Caminho_1417"
       data-name="Caminho 1417"
       class="cls-1"
       d="M9.53,14.47V9.53A.6.6,0,0,1,10.44,9l4.12,2.48a.59.59,0,0,1,0,1L10.44,15a.6.6,0,0,1-.91-.53Z"
       style="stroke:#1c1c38;stroke-opacity:1" />
  </g>
</svg>
